<svg version="1.1" id="Layer_1" xmlns="http://www.w3.org/2000/svg" xmlns:xlink="http://www.w3.org/1999/xlink" x="0px" y="0px"
	 width="100%" viewBox="0 0 2338 1824" enable-background="new 0 0 2338 1824" xml:space="preserve">
<path fill="none" opacity="1.000000" stroke="none" 
	d="
M1478.000000,1826.000000 
	C985.392273,1826.000000 493.784607,1826.000000 2.088444,1826.000000 
	C2.088444,1218.131836 2.088444,610.263733 2.088444,2.197816 
	C781.107971,2.197816 1560.215942,2.197816 2339.662109,2.197816 
	C2339.662109,609.999878 2339.662109,1217.999878 2339.662109,1826.000000 
	C2052.929932,1826.000000 1765.964966,1826.000000 1478.000000,1826.000000 
M1133.880371,1275.202881 
	C1134.579712,1275.471191 1135.279053,1275.739502 1136.957275,1276.911987 
	C1160.821045,1292.601807 1187.442505,1293.655884 1212.782471,1285.131348 
	C1250.647461,1272.393555 1274.203979,1245.012329 1279.615967,1204.363403 
	C1282.362061,1183.738647 1279.483521,1164.045288 1267.656616,1145.983521 
	C1257.099976,1129.861572 1247.653931,1113.013062 1237.683594,1096.505981 
	C1221.006714,1068.895142 1204.204956,1041.359009 1187.658203,1013.670532 
	C1181.176270,1002.824402 1175.399658,991.558594 1169.012451,980.653442 
	C1161.802246,968.343201 1154.319214,956.191284 1146.856323,944.031067 
	C1139.909668,932.711853 1131.807983,921.969116 1126.048828,910.083801 
	C1116.834473,891.068359 1103.992920,875.443665 1087.527710,862.538635 
	C1076.824463,854.149658 1064.605835,848.625916 1051.187500,847.700134 
	C1039.985474,846.927246 1028.624146,848.676880 1017.324768,849.043518 
	C1002.947632,849.510132 990.888977,856.058105 980.573059,864.918091 
	C969.048401,874.816284 958.633301,886.037720 950.997986,899.565308 
	C939.737915,919.514954 928.417480,939.450134 916.428406,958.964905 
	C883.145081,1013.140747 849.485413,1067.085327 816.034058,1121.158081 
	C813.080566,1125.932129 810.562561,1130.975586 806.938354,1136.890015 
	C806.711365,1137.749023 806.484375,1138.608032 805.360779,1140.105835 
	C804.042175,1142.795654 802.723633,1145.485352 800.548462,1149.208984 
	C800.399963,1149.631226 800.251526,1150.053345 799.629822,1150.637573 
	C799.629822,1150.637573 799.630920,1151.547485 798.635681,1152.925659 
	C798.469604,1153.467407 798.303467,1154.009155 797.230713,1155.483032 
	C794.981567,1161.661987 791.998718,1167.681519 790.614563,1174.048584 
	C785.521423,1197.476562 788.215576,1219.873657 801.235901,1241.332886 
	C801.235901,1241.332886 801.812927,1241.839478 802.059937,1243.274048 
	C807.140564,1253.536621 814.265930,1262.018799 824.684998,1269.293701 
	C825.059082,1269.479126 825.433105,1269.664673 826.361389,1270.839722 
	C841.890808,1281.876099 858.290894,1290.574585 879.711670,1290.571777 
	C883.559387,1290.530762 887.407043,1290.489868 892.773010,1290.831177 
	C899.959167,1289.739868 907.438599,1289.568970 914.278015,1287.389526 
	C937.340698,1280.041016 956.879700,1266.268433 977.059692,1251.711304 
	C977.333008,1251.489258 977.606323,1251.267334 979.355835,1250.745361 
	C984.409485,1249.066650 989.569824,1247.652832 994.499451,1245.666382 
	C1027.656006,1232.305420 1059.112183,1239.996582 1090.054932,1253.354004 
	C1104.364746,1259.531372 1116.619385,1269.957520 1132.826538,1274.460205 
	C1132.826538,1274.460205 1133.773560,1274.678467 1133.981201,1274.276611 
	C1133.981201,1274.276611 1133.578247,1274.071167 1133.880371,1275.202881 
M1583.433350,1194.840820 
	C1583.455688,1179.681274 1581.611206,1164.718140 1574.325195,1151.296265 
	C1565.601440,1135.225586 1556.038330,1119.592896 1546.413574,1104.033447 
	C1535.565430,1086.496338 1523.967529,1069.421265 1513.196777,1051.838379 
	C1498.759277,1028.269531 1484.959106,1004.311157 1470.604004,980.690918 
	C1447.441895,942.579407 1423.936890,904.676331 1400.786011,866.558105 
	C1374.869507,823.886536 1349.204956,781.062012 1323.395142,738.325500 
	C1301.381592,701.874573 1279.428833,665.385986 1257.218262,629.055237 
	C1248.998169,615.609131 1238.848145,604.125366 1224.858276,595.853638 
	C1203.648926,583.313171 1181.732300,577.214233 1157.278809,583.549316 
	C1139.996704,588.026489 1123.817017,594.587585 1110.960571,607.551819 
	C1087.838379,630.867615 1078.561279,658.913025 1082.485962,691.410889 
	C1084.212524,705.707947 1091.607666,717.787842 1098.505737,729.852783 
	C1109.408325,748.921570 1121.119385,767.530518 1132.599854,786.265747 
	C1156.957886,826.016052 1181.467163,865.673950 1205.766113,905.460205 
	C1229.890991,944.961060 1253.786987,984.601501 1277.866455,1024.130127 
	C1323.074463,1098.343018 1368.337402,1172.522461 1413.588135,1246.709473 
	C1427.834717,1270.066040 1448.930176,1283.320679 1475.610352,1287.522583 
	C1525.977173,1295.455078 1570.374756,1261.108643 1580.319214,1219.403687 
	C1582.083740,1212.003662 1582.418213,1204.262695 1583.433350,1194.840820 
M1366.322510,625.561462 
	C1361.569946,649.938477 1369.193604,669.743347 1389.306274,684.057495 
	C1405.135864,695.323364 1422.613892,697.368774 1441.124146,691.061768 
	C1441.124146,655.039307 1441.124146,620.187683 1441.124146,584.804871 
	C1423.779297,579.227295 1407.312134,579.209534 1392.123169,589.503418 
	C1379.728027,597.903809 1370.099243,608.752686 1366.322510,625.561462 
z"/>
<path fill="#05A1EE" opacity="1.000000" stroke="none" 
	d="
M1583.423096,1195.760010 
	C1582.418213,1204.262695 1582.083740,1212.003662 1580.319214,1219.403687 
	C1570.374756,1261.108643 1525.977173,1295.455078 1475.610352,1287.522583 
	C1448.930176,1283.320679 1427.834717,1270.066040 1413.588135,1246.709473 
	C1368.337402,1172.522461 1323.074463,1098.343018 1277.866455,1024.130127 
	C1253.786987,984.601501 1229.890991,944.961060 1205.766113,905.460205 
	C1181.467163,865.673950 1156.957886,826.016052 1132.599854,786.265747 
	C1121.119385,767.530518 1109.408325,748.921570 1098.505737,729.852783 
	C1091.607666,717.787842 1084.212524,705.707947 1082.485962,691.410889 
	C1078.561279,658.913025 1087.838379,630.867615 1110.960571,607.551819 
	C1123.817017,594.587585 1139.996704,588.026489 1157.278809,583.549316 
	C1181.732300,577.214233 1203.648926,583.313171 1224.858276,595.853638 
	C1238.848145,604.125366 1248.998169,615.609131 1257.218262,629.055237 
	C1279.428833,665.385986 1301.381592,701.874573 1323.395142,738.325500 
	C1349.204956,781.062012 1374.869507,823.886536 1400.786011,866.558105 
	C1423.936890,904.676331 1447.441895,942.579407 1470.604004,980.690918 
	C1484.959106,1004.311157 1498.759277,1028.269531 1513.196777,1051.838379 
	C1523.967529,1069.421265 1535.565430,1086.496338 1546.413574,1104.033447 
	C1556.038330,1119.592896 1565.601440,1135.225586 1574.325195,1151.296265 
	C1581.611206,1164.718140 1583.455688,1179.681274 1583.423096,1195.760010 
z"/>
<path fill="#3DBB3B" opacity="1.000000" stroke="none" 
	d="
M801.812927,1241.839478 
	C801.812927,1241.839478 801.235901,1241.332886 801.551270,1240.484863 
	C802.035217,1238.697632 802.595154,1237.614258 802.310669,1236.841919 
	C799.937927,1230.400879 796.852844,1224.169189 795.054077,1217.581787 
	C792.075195,1206.672363 790.597534,1195.531494 793.088623,1184.191040 
	C794.283752,1178.750244 795.018982,1173.209961 796.057312,1167.732544 
	C796.668823,1164.507080 797.466003,1161.317017 798.809692,1157.916016 
	C803.569641,1155.652832 807.106323,1153.304321 804.233704,1147.250000 
	C804.984802,1145.073975 805.602661,1143.510742 806.715576,1141.604492 
	C808.162842,1139.540039 809.115112,1137.818604 810.067749,1136.077637 
	C810.068054,1136.058228 810.051392,1136.023682 810.432129,1135.730469 
	C811.292236,1135.003418 811.700195,1134.510498 812.314331,1133.353760 
	C815.316895,1129.925293 818.644775,1127.474365 820.661865,1124.212769 
	C829.025024,1110.689697 837.001709,1096.927246 845.100098,1083.240601 
	C848.147461,1078.090576 850.603333,1072.486572 854.264648,1067.824341 
	C862.905029,1056.822388 869.919189,1044.974243 876.605957,1032.678589 
	C885.631042,1016.083618 896.481323,1000.480713 906.561584,984.460449 
	C912.185364,975.522644 917.999207,966.699524 923.425781,957.644043 
	C928.352539,949.422668 932.405212,940.647217 937.696228,932.682678 
	C943.329224,924.203369 945.685242,924.486450 952.628845,932.536438 
	C953.063416,933.040222 953.509033,933.534546 953.932007,934.777283 
	C954.458252,938.360779 955.002136,941.200256 955.722534,944.685974 
	C955.784973,946.210449 955.670898,947.088562 955.182678,948.552124 
	C954.539551,951.424561 954.270508,953.711609 954.197998,956.341064 
	C954.675476,957.126465 954.997620,957.537170 955.437378,958.697876 
	C957.124207,963.701050 958.734802,967.921936 960.510010,972.218872 
	C960.674561,972.294861 960.541138,972.631958 960.518066,973.368713 
	C961.230347,975.324524 961.965759,976.543579 962.585693,977.726440 
	C962.470215,977.690308 962.554565,977.463501 962.432800,978.209473 
	C963.774536,981.340637 965.238037,983.725830 966.811401,986.142944 
	C966.921326,986.174866 966.884399,986.400818 966.712891,987.232361 
	C967.654175,994.634094 968.430664,1001.410889 976.172729,1003.874207 
	C976.099792,1003.883484 976.172791,1003.755798 976.213867,1004.372314 
	C976.967468,1005.954773 977.679993,1006.920715 978.302734,1007.862671 
	C978.213013,1007.838623 978.266968,1007.660767 978.297546,1008.286987 
	C979.058411,1009.884094 979.788696,1010.854858 980.416870,1011.800537 
	C980.314697,1011.775452 980.373413,1011.573425 980.384338,1012.207947 
	C981.116821,1013.833496 981.838440,1014.824524 982.456055,1015.789551 
	C982.351990,1015.763550 982.413208,1015.558044 982.319458,1016.335388 
	C984.072876,1026.378784 987.640991,1034.621460 996.132812,1040.255249 
	C996.380676,1040.426636 996.359436,1041.028809 996.297974,1041.773560 
	C997.568665,1044.307861 998.900818,1046.097534 1000.162842,1047.891113 
	C1000.092712,1047.895264 1000.156860,1047.770264 1000.205322,1048.387207 
	C1000.994263,1049.949219 1001.734863,1050.894531 1002.377197,1051.818115 
	C1002.278931,1051.796387 1002.329773,1051.601807 1002.363464,1052.231323 
	C1003.150696,1053.816406 1003.904236,1054.772095 1004.544495,1055.702393 
	C1004.431213,1055.677124 1004.493530,1055.453491 1004.404358,1056.163818 
	C1005.613159,1058.578491 1006.911133,1060.282959 1008.419312,1062.079590 
	C1008.629578,1062.171875 1008.485413,1062.607788 1008.644348,1063.268799 
	C1009.335083,1064.653687 1009.866882,1065.377441 1010.525452,1066.164062 
	C1010.652222,1066.226929 1010.544861,1066.488770 1010.680481,1067.141602 
	C1011.343140,1068.496582 1011.870178,1069.198730 1012.306641,1069.867432 
	C1012.216003,1069.833740 1012.288818,1069.654663 1012.189575,1070.440430 
	C1014.517456,1082.482300 1020.357544,1091.993530 1027.375244,1100.873291 
	C1027.915405,1101.556885 1029.140991,1101.698853 1030.279175,1102.194824 
	C1030.510376,1102.296875 1030.442383,1102.797852 1030.354004,1103.613281 
	C1032.455811,1112.050171 1033.551147,1120.353882 1042.297119,1123.827881 
	C1042.227295,1123.809937 1042.271606,1123.672485 1042.161133,1124.504639 
	C1042.642334,1130.190308 1043.233887,1135.043823 1043.380737,1140.067627 
	C1042.627319,1141.470825 1042.318481,1142.703857 1041.846436,1144.702881 
	C1041.106201,1149.634888 1040.529297,1153.801025 1039.976196,1157.981079 
	C1040.000000,1157.995117 1039.960449,1157.954956 1039.262939,1158.065918 
	C1032.719604,1161.763916 1027.418945,1166.177734 1020.304749,1167.641479 
	C1017.823059,1168.151978 1015.895996,1171.358643 1012.959229,1173.592773 
	C1009.561584,1173.758301 1006.920471,1173.665283 1003.839355,1172.900879 
	C995.767456,1166.980103 987.477966,1164.909790 977.700806,1166.920410 
	C973.976196,1164.061279 970.870056,1161.324341 967.811096,1157.834351 
	C967.285828,1151.953857 965.194580,1147.887573 960.036133,1145.969727 
	C960.000000,1146.000000 960.067261,1145.931763 960.073364,1145.206909 
	C957.235229,1136.777466 952.771545,1130.896240 943.385376,1130.005371 
	C942.313538,1129.735352 941.931702,1129.300659 941.381042,1128.130493 
	C940.178772,1127.224976 939.387573,1126.842163 938.146484,1126.456177 
	C937.043518,1125.892212 936.390381,1125.331543 935.398193,1124.231445 
	C933.911377,1123.243530 932.763489,1122.795288 931.692383,1122.324829 
	C931.769104,1122.302734 931.804993,1122.458374 931.420410,1121.872070 
	C928.480164,1120.401733 925.924377,1119.517456 923.497253,1118.482910 
	C923.625916,1118.332642 923.451233,1118.687744 923.428101,1118.092529 
	C922.510864,1116.629883 921.770447,1115.372803 920.700623,1114.950806 
	C876.270386,1097.418823 830.664734,1127.537354 815.865906,1165.190674 
	C811.420776,1176.500610 812.207764,1188.051880 811.992432,1199.672974 
	C811.465332,1228.116821 827.142822,1247.904419 847.909790,1264.050659 
	C855.245850,1269.754395 865.304810,1272.226196 874.435303,1275.210938 
	C877.811707,1276.314697 882.092102,1274.653198 886.720093,1274.149292 
	C888.973816,1274.327148 890.467712,1274.608643 892.248169,1275.391235 
	C895.460083,1278.648315 897.957275,1278.247803 900.771851,1274.599731 
	C903.022949,1274.335693 904.553162,1274.345093 906.491821,1274.710327 
	C907.925781,1275.384033 908.951355,1275.701782 909.963135,1276.779053 
	C909.991577,1282.106201 907.624451,1284.619751 903.283386,1285.669800 
	C900.817993,1286.266113 898.433289,1287.195923 895.110840,1287.975342 
	C888.804688,1287.989868 883.399902,1288.004761 877.355469,1287.614136 
	C866.535156,1284.501221 856.189270,1282.281860 846.232971,1278.911621 
	C839.817627,1276.739990 833.974365,1272.878418 827.595154,1269.313232 
	C826.234924,1267.891113 825.154175,1266.930054 823.898193,1265.307861 
	C816.419617,1257.044434 809.116272,1249.442017 801.812927,1241.839478 
z"/>
<path fill="#49A74A" opacity="1.000000" stroke="none" 
	d="
M953.949585,934.033203 
	C953.509033,933.534546 953.063416,933.040222 952.628845,932.536438 
	C945.685242,924.486450 943.329224,924.203369 937.696228,932.682678 
	C932.405212,940.647217 928.352539,949.422668 923.425781,957.644043 
	C917.999207,966.699524 912.185364,975.522644 906.561584,984.460449 
	C896.481323,1000.480713 885.631042,1016.083618 876.605957,1032.678589 
	C869.919189,1044.974243 862.905029,1056.822388 854.264648,1067.824341 
	C850.603333,1072.486572 848.147461,1078.090576 845.100098,1083.240601 
	C837.001709,1096.927246 829.025024,1110.689697 820.661865,1124.212769 
	C818.644775,1127.474365 815.316895,1129.925293 811.947388,1133.663208 
	C810.835144,1135.015747 810.417969,1135.497803 810.051392,1136.023682 
	C810.051392,1136.023682 810.068054,1136.058228 809.510620,1136.032959 
	C808.582764,1135.969604 808.212463,1135.931641 807.842285,1135.893799 
	C810.562561,1130.975586 813.080566,1125.932129 816.034058,1121.158081 
	C849.485413,1067.085327 883.145081,1013.140747 916.428406,958.964905 
	C928.417480,939.450134 939.737915,919.514954 950.997986,899.565308 
	C958.633301,886.037720 969.048401,874.816284 980.573059,864.918091 
	C990.888977,856.058105 1002.947632,849.510132 1017.324768,849.043518 
	C1028.624146,848.676880 1039.985474,846.927246 1051.187500,847.700134 
	C1064.605835,848.625916 1076.824463,854.149658 1087.527710,862.538635 
	C1103.992920,875.443665 1116.834473,891.068359 1126.048828,910.083801 
	C1131.807983,921.969116 1139.909668,932.711853 1146.856323,944.031067 
	C1154.319214,956.191284 1161.802246,968.343201 1169.012451,980.653442 
	C1175.399658,991.558594 1181.176270,1002.824402 1187.658203,1013.670532 
	C1204.204956,1041.359009 1221.006714,1068.895142 1237.683594,1096.505981 
	C1247.653931,1113.013062 1257.099976,1129.861572 1267.656616,1145.983521 
	C1279.483521,1164.045288 1282.362061,1183.738647 1279.615967,1204.363403 
	C1274.203979,1245.012329 1250.647461,1272.393555 1212.782471,1285.131348 
	C1187.442505,1293.655884 1160.821045,1292.601807 1136.095825,1276.104858 
	C1134.682373,1274.888916 1134.130249,1274.479980 1133.578247,1274.071167 
	C1133.578247,1274.071167 1133.981201,1274.276611 1133.737549,1274.229004 
	C1133.107788,1273.717651 1132.626587,1273.615845 1132.050293,1273.875732 
	C1116.619385,1269.957520 1104.364746,1259.531372 1090.054932,1253.354004 
	C1059.112183,1239.996582 1027.656006,1232.305420 994.499451,1245.666382 
	C989.569824,1247.652832 984.409485,1249.066650 978.819824,1250.260742 
	C980.609497,1247.599731 982.569336,1244.581787 985.321167,1243.385498 
	C1001.399292,1236.395386 1018.712769,1235.404053 1035.848877,1234.434326 
	C1055.122681,1233.343750 1072.029663,1243.255005 1090.151611,1247.623413 
	C1091.073120,1247.845703 1091.852173,1248.633423 1092.716064,1249.125366 
	C1098.099976,1252.190552 1103.489258,1255.246460 1109.959961,1258.920532 
	C1111.227173,1256.762329 1112.627930,1254.376587 1114.589478,1252.351440 
	C1124.623169,1260.808105 1134.119751,1268.858398 1147.645264,1269.319092 
	C1147.799927,1269.236572 1147.983887,1269.535156 1148.147949,1269.801514 
	C1148.311890,1270.067871 1149.137695,1270.414429 1149.137695,1270.414429 
	C1149.137695,1270.414429 1149.997192,1270.132690 1150.715454,1270.133911 
	C1152.266846,1270.574707 1153.099854,1271.014282 1154.382812,1271.907593 
	C1156.470459,1272.512695 1158.108276,1272.663940 1160.290649,1272.696411 
	C1161.863403,1272.961060 1162.891479,1273.344604 1163.938477,1274.310791 
	C1163.976562,1275.281616 1163.995605,1275.669800 1163.598877,1276.524170 
	C1160.324707,1280.118408 1160.932861,1282.665283 1164.991211,1283.443481 
	C1169.213013,1284.252808 1173.740601,1283.636841 1177.881958,1284.663330 
	C1189.435669,1287.527710 1200.771118,1285.555420 1211.258911,1281.627686 
	C1246.186157,1268.547363 1269.515015,1244.819824 1275.207031,1206.678955 
	C1277.440918,1191.708984 1277.122314,1176.523926 1270.660156,1162.528809 
	C1265.931641,1152.288086 1259.774292,1142.683350 1253.952881,1132.975708 
	C1241.987061,1113.021851 1229.747192,1093.232422 1217.752075,1073.295898 
	C1201.128540,1045.667236 1184.957397,1017.759583 1167.919678,990.390198 
	C1160.445923,978.384521 1154.978027,964.745728 1142.839722,955.978149 
	C1141.269287,954.843872 1140.300415,951.962830 1140.211670,949.842529 
	C1139.711792,937.889343 1130.753906,930.332031 1125.400635,920.948730 
	C1123.930542,918.372009 1120.694702,917.138672 1117.248535,921.250366 
	C1119.083008,924.051270 1121.296631,926.872620 1122.913086,930.002380 
	C1128.054810,939.958435 1132.973999,950.029419 1137.332520,960.057312 
	C1136.254761,960.075989 1135.823853,960.093323 1134.874268,959.701721 
	C1126.956665,945.752014 1119.557861,932.211243 1112.104492,918.129150 
	C1111.255371,916.428955 1110.460938,915.269958 1109.739990,914.127869 
	C1109.813477,914.144775 1109.774414,914.290527 1109.686768,913.682068 
	C1108.885254,912.112183 1108.171509,911.150818 1107.022339,909.952271 
	C1106.271729,908.806885 1105.956543,907.898499 1105.607544,906.267334 
	C1104.174316,903.768188 1102.775146,901.991760 1100.963135,899.994141 
	C1100.094604,899.282043 1099.905029,898.703857 1099.848389,897.452148 
	C1098.921631,896.000488 1098.128174,895.135071 1097.460205,894.282837 
	C1097.585693,894.295959 1097.547974,894.545654 1097.519043,893.832703 
	C1094.665405,886.791687 1090.929199,881.498596 1083.436157,880.598389 
	C1083.571045,880.571899 1083.608032,880.844421 1083.298096,880.309021 
	C1081.929199,879.209412 1080.870239,878.645142 1079.219971,877.975342 
	C1077.042358,876.697205 1075.456055,875.524658 1073.395264,873.899902 
	C1072.129517,873.076355 1071.338623,872.705078 1070.032471,872.411255 
	C1068.369751,871.784180 1067.222290,871.079651 1065.599243,869.823730 
	C1045.493286,857.999634 1025.698730,859.917542 1005.857544,868.611267 
	C1005.027832,868.974792 1004.509705,870.049500 1003.745178,870.760986 
	C1003.643860,870.729004 1003.713135,870.528198 1002.986633,870.759155 
	C1001.422913,871.558838 1000.585632,872.127563 999.678955,872.664490 
	C999.609436,872.632751 999.720581,872.527832 999.058472,872.742798 
	C997.671570,873.518311 996.946777,874.078857 995.864014,875.153320 
	C992.024475,877.864563 988.543030,880.061768 984.500977,882.544678 
	C983.366394,883.432007 982.792358,884.033630 982.017456,885.132690 
	C980.705322,886.485840 979.594055,887.341614 977.845764,888.352173 
	C976.273621,889.848511 975.338501,891.190063 974.361572,892.394165 
	C974.319824,892.256714 974.597412,892.182068 974.102295,892.591064 
	C973.166626,893.728027 972.726013,894.455933 972.289001,895.467651 
	C972.292603,895.751526 971.772339,895.978821 971.089233,896.161743 
	C965.638489,898.568359 964.437683,902.658203 964.640869,907.612732 
	C964.689758,907.768433 964.385498,907.886780 963.939697,908.434814 
	C963.144836,909.856506 962.795898,910.730164 962.529480,911.627075 
	C962.612061,911.650269 962.570129,911.816589 962.122559,912.407593 
	C961.351135,913.931091 961.027161,914.863647 960.953918,916.150269 
	C961.176086,917.140869 960.884277,917.615417 959.924438,918.504883 
	C959.243835,919.980530 958.967896,920.879211 958.924622,922.135864 
	C959.145691,923.116760 958.878174,923.597107 957.911499,924.554321 
	C957.260315,926.663452 957.052185,928.153137 957.067444,930.175659 
	C956.936218,931.784790 956.581543,932.861084 955.657349,933.956360 
	C954.708435,933.994629 954.329041,934.013916 953.949585,934.033203 
z"/>
<path fill="#3DBB3B" opacity="1.000000" stroke="none" 
	d="
M1366.502686,624.769287 
	C1370.099243,608.752686 1379.728027,597.903809 1392.123169,589.503418 
	C1407.312134,579.209534 1423.779297,579.227295 1441.124146,584.804871 
	C1441.124146,620.187683 1441.124146,655.039307 1441.124146,691.061768 
	C1422.613892,697.368774 1405.135864,695.323364 1389.306274,684.057495 
	C1369.193604,669.743347 1361.569946,649.938477 1366.502686,624.769287 
z"/>
<path fill="#3DBB3B" opacity="1.000000" stroke="none" 
	d="
M1114.028809,1251.990723 
	C1112.627930,1254.376587 1111.227173,1256.762329 1109.959961,1258.920532 
	C1103.489258,1255.246460 1098.099976,1252.190552 1092.716064,1249.125366 
	C1091.852173,1248.633423 1091.073120,1247.845703 1090.151611,1247.623413 
	C1072.029663,1243.255005 1055.122681,1233.343750 1035.848877,1234.434326 
	C1018.712769,1235.404053 1001.399292,1236.395386 985.321167,1243.385498 
	C982.569336,1244.581787 980.609497,1247.599731 978.081787,1250.410767 
	C977.606323,1251.267334 977.333008,1251.489258 975.739258,1251.813721 
	C969.036194,1252.528687 964.496643,1251.334839 961.909363,1245.260132 
	C961.885864,1242.875610 961.815918,1241.287842 961.806030,1239.768066 
	C961.866089,1239.836060 961.688293,1239.799316 962.364380,1239.655029 
	C965.175110,1236.668823 967.403809,1233.891846 969.416748,1230.966309 
	C971.287537,1228.247559 972.357849,1224.691284 974.762024,1222.672485 
	C991.584961,1208.546631 1010.128052,1198.306885 1033.030762,1199.328003 
	C1062.668091,1200.649414 1086.465088,1212.701660 1103.208008,1237.731567 
	C1106.519531,1242.682251 1110.406860,1247.247681 1114.028809,1251.990723 
z"/>
<path fill="#49A74A" opacity="1.000000" stroke="none" 
	d="
M961.862915,1246.056885 
	C964.496643,1251.334839 969.036194,1252.528687 975.223938,1251.929688 
	C956.879700,1266.268433 937.340698,1280.041016 914.278015,1287.389526 
	C907.438599,1289.568970 899.959167,1289.739868 892.643555,1290.391357 
	C893.680115,1289.292969 894.846191,1288.634277 896.012329,1287.975586 
	C898.433289,1287.195923 900.817993,1286.266113 903.283386,1285.669800 
	C907.624451,1284.619751 909.991577,1282.106201 910.654175,1276.630127 
	C914.267883,1274.349365 917.176880,1272.976929 920.199463,1271.462646 
	C920.313110,1271.320557 920.607666,1271.534058 921.375366,1271.505127 
	C923.476196,1270.783813 924.809265,1270.091675 926.249023,1269.373535 
	C926.355652,1269.347656 926.412598,1269.559692 927.080017,1269.378418 
	C928.522949,1268.712524 929.298401,1268.227905 930.162598,1267.543213 
	C930.251221,1267.343262 930.658997,1267.501831 931.455688,1267.514404 
	C939.088806,1265.903320 945.757507,1264.047363 948.342285,1255.559204 
	C951.084167,1252.658813 953.525940,1250.321045 956.587402,1247.896240 
	C958.759094,1247.225098 960.311035,1246.640991 961.862915,1246.056885 
z"/>
<path fill="#49A74A" opacity="1.000000" stroke="none" 
	d="
M798.179626,1158.110962 
	C797.466003,1161.317017 796.668823,1164.507080 796.057312,1167.732544 
	C795.018982,1173.209961 794.283752,1178.750244 793.088623,1184.191040 
	C790.597534,1195.531494 792.075195,1206.672363 795.054077,1217.581787 
	C796.852844,1224.169189 799.937927,1230.400879 802.310669,1236.841919 
	C802.595154,1237.614258 802.035217,1238.697632 801.432129,1240.119873 
	C788.215576,1219.873657 785.521423,1197.476562 790.614563,1174.048584 
	C791.998718,1167.681519 794.981567,1161.661987 797.701904,1155.609375 
	C798.175232,1156.527344 798.177429,1157.319214 798.179626,1158.110962 
z"/>
<path fill="#49A74A" opacity="1.000000" stroke="none" 
	d="
M827.874634,1269.774414 
	C833.974365,1272.878418 839.817627,1276.739990 846.232971,1278.911621 
	C856.189270,1282.281860 866.535156,1284.501221 877.381897,1288.136108 
	C878.066589,1289.411621 878.085266,1289.759766 878.103882,1290.107910 
	C858.290894,1290.574585 841.890808,1281.876099 826.429016,1270.322021 
	C826.956177,1269.804321 827.415527,1269.794434 827.874634,1269.774414 
z"/>
<path fill="#49A74A" opacity="1.000000" stroke="none" 
	d="
M801.936401,1242.556763 
	C809.116272,1249.442017 816.419617,1257.044434 823.856567,1265.900024 
	C823.953430,1267.546753 823.916687,1267.940552 823.879883,1268.334229 
	C814.265930,1262.018799 807.140564,1253.536621 801.936401,1242.556763 
z"/>
<path fill="#55AE54" opacity="1.000000" stroke="none" 
	d="
M798.809692,1157.916016 
	C798.177429,1157.319214 798.175232,1156.527344 798.155212,1155.143311 
	C798.303467,1154.009155 798.469604,1153.467407 799.239502,1152.072266 
	C799.843384,1151.218994 800.103027,1150.475586 800.103027,1150.475586 
	C800.251526,1150.053345 800.399963,1149.631226 801.426758,1148.654785 
	C802.903687,1148.023315 803.502197,1147.943970 804.100403,1147.862671 
	C807.106323,1153.304321 803.569641,1155.652832 798.809692,1157.916016 
z"/>
<path fill="#55AE54" opacity="1.000000" stroke="none" 
	d="
M878.907776,1290.339844 
	C878.085266,1289.759766 878.066589,1289.411621 878.021545,1288.541626 
	C883.399902,1288.004761 888.804688,1287.989868 895.110901,1287.975342 
	C894.846191,1288.634277 893.680115,1289.292969 891.884399,1290.200195 
	C887.407043,1290.489868 883.559387,1290.530762 878.907776,1290.339844 
z"/>
<path fill="#49A74A" opacity="1.000000" stroke="none" 
	d="
M804.233704,1147.250000 
	C803.502197,1147.943970 802.903687,1148.023315 801.855042,1148.137817 
	C802.723633,1145.485352 804.042175,1142.795654 805.805542,1140.200195 
	C806.219421,1140.845093 806.209473,1141.396118 806.220459,1141.947510 
	C805.602661,1143.510742 804.984802,1145.073975 804.233704,1147.250000 
z"/>
<path fill="#55AE54" opacity="1.000000" stroke="none" 
	d="
M806.715576,1141.604492 
	C806.209473,1141.396118 806.219421,1140.845093 806.253906,1139.880737 
	C806.484375,1138.608032 806.711365,1137.749023 807.390259,1136.391846 
	C808.212463,1135.931641 808.582764,1135.969604 809.510254,1136.052368 
	C809.115112,1137.818604 808.162842,1139.540039 806.715576,1141.604492 
z"/>
<path fill="#55AE54" opacity="1.000000" stroke="none" 
	d="
M824.282471,1268.813965 
	C823.916687,1267.940552 823.953430,1267.546753 824.031860,1266.561035 
	C825.154175,1266.930054 826.234924,1267.891113 827.595154,1269.313232 
	C827.415527,1269.794434 826.956177,1269.804321 826.151855,1269.827148 
	C825.433105,1269.664673 825.059082,1269.479126 824.282471,1268.813965 
z"/>
<path fill="#55AE54" opacity="1.000000" stroke="none" 
	d="
M1132.438477,1274.167969 
	C1132.626587,1273.615845 1133.107788,1273.717651 1133.633667,1274.429932 
	C1133.773560,1274.678467 1132.826538,1274.460205 1132.438477,1274.167969 
z"/>
<path fill="#55AE54" opacity="1.000000" stroke="none" 
	d="
M1133.729248,1274.636963 
	C1134.130249,1274.479980 1134.682373,1274.888916 1135.606445,1275.652832 
	C1135.279053,1275.739502 1134.579712,1275.471191 1133.729248,1274.636963 
z"/>
<path fill="#49A74A" opacity="1.000000" stroke="none" 
	d="
M799.866455,1150.556641 
	C800.103027,1150.475586 799.843384,1151.218994 799.737183,1151.383301 
	C799.630920,1151.547485 799.629822,1150.637573 799.866455,1150.556641 
z"/>
<path fill="#FCFEFB" opacity="1.000000" stroke="none" 
	d="
M955.967651,1247.983276 
	C953.525940,1250.321045 951.084167,1252.658813 947.675171,1255.710449 
	C941.358337,1260.116821 936.008667,1263.809326 930.658997,1267.501831 
	C930.658997,1267.501831 930.251221,1267.343262 929.439087,1267.579834 
	C927.888794,1268.397583 927.150696,1268.978638 926.412598,1269.559692 
	C926.412598,1269.559692 926.355652,1269.347656 925.475464,1269.377197 
	C923.266052,1270.115845 921.936890,1270.824951 920.607666,1271.534058 
	C920.607666,1271.534058 920.313110,1271.320557 919.377991,1271.421021 
	C914.323059,1272.465698 910.203247,1273.410034 906.083435,1274.354370 
	C904.553162,1274.345093 903.022949,1274.335693 899.988708,1274.331665 
	C896.310364,1274.521240 894.135925,1274.705688 891.961548,1274.890137 
	C890.467712,1274.608643 888.973816,1274.327148 886.078247,1273.796631 
	C873.566162,1271.092041 862.869080,1267.496216 853.281799,1261.243774 
	C822.358154,1241.076782 809.793762,1210.692383 817.200439,1176.192993 
	C825.340942,1138.275391 869.199158,1104.763672 914.750183,1116.783691 
	C917.618286,1117.540527 920.549438,1118.058594 923.451233,1118.687744 
	C923.451233,1118.687744 923.625916,1118.332642 923.903198,1119.023926 
	C926.721985,1120.629517 929.263489,1121.543945 931.804993,1122.458496 
	C931.804993,1122.458374 931.769104,1122.302734 932.009033,1122.875732 
	C933.411743,1123.889404 934.574524,1124.330200 935.737244,1124.770996 
	C936.390381,1125.331543 937.043518,1125.892212 938.497559,1127.049072 
	C940.129700,1127.981079 940.960938,1128.317139 941.792114,1128.653198 
	C941.931702,1129.300659 942.313538,1129.735352 943.677124,1130.610596 
	C949.633606,1136.153198 954.850464,1141.042480 960.067261,1145.931763 
	C960.067261,1145.931763 960.000000,1146.000000 960.110596,1146.663818 
	C962.735413,1151.080811 965.249695,1154.833984 967.763916,1158.587280 
	C970.870056,1161.324341 973.976196,1164.061279 978.221436,1167.444824 
	C987.666748,1169.918213 995.973022,1171.745239 1004.279297,1173.572266 
	C1006.920471,1173.665283 1009.561584,1173.758301 1013.620605,1173.783813 
	C1025.479614,1171.836548 1034.747070,1168.100952 1039.960449,1157.954956 
	C1039.960449,1157.954956 1040.000000,1157.995117 1040.594482,1157.654297 
	C1047.605103,1146.294678 1051.486572,1135.194336 1042.271606,1123.672485 
	C1042.271606,1123.672485 1042.227295,1123.809937 1042.260620,1123.096802 
	C1038.343506,1115.855103 1034.392944,1109.326416 1030.442383,1102.797852 
	C1030.442383,1102.797852 1030.510376,1102.296875 1030.217651,1101.465332 
	C1024.046265,1090.307373 1018.167480,1079.980957 1012.288818,1069.654663 
	C1012.288818,1069.654663 1012.216003,1069.833740 1012.261230,1069.176514 
	C1011.719238,1067.842529 1011.132080,1067.165649 1010.544861,1066.488770 
	C1010.544861,1066.488770 1010.652222,1066.226929 1010.467285,1065.458740 
	C1009.683350,1063.996216 1009.084412,1063.302002 1008.485413,1062.607788 
	C1008.485413,1062.607788 1008.629578,1062.171875 1008.398560,1061.422485 
	C1006.942810,1058.933228 1005.718140,1057.193359 1004.493530,1055.453491 
	C1004.493530,1055.453491 1004.431213,1055.677124 1004.518616,1055.066162 
	C1003.847290,1053.504028 1003.088501,1052.552979 1002.329712,1051.601807 
	C1002.329773,1051.601807 1002.278931,1051.796387 1002.358521,1051.187256 
	C1001.677734,1049.642212 1000.917297,1048.706177 1000.156860,1047.770264 
	C1000.156860,1047.770264 1000.092712,1047.895264 1000.140259,1047.207520 
	C998.911682,1044.689331 997.635559,1042.859131 996.359436,1041.028809 
	C996.359436,1041.028809 996.380676,1040.426636 996.079956,1039.532959 
	C991.323914,1030.945679 986.868530,1023.251831 982.413208,1015.558044 
	C982.413208,1015.558044 982.351990,1015.763550 982.457886,1015.146240 
	C981.833618,1013.543762 981.103516,1012.558594 980.373413,1011.573425 
	C980.373413,1011.573425 980.314697,1011.775452 980.407471,1011.163696 
	C979.755859,1009.588257 979.011414,1008.624512 978.266968,1007.660767 
	C978.266968,1007.660767 978.213013,1007.838623 978.301453,1007.230591 
	C977.650879,1005.666992 976.911804,1004.711365 976.172791,1003.755798 
	C976.172791,1003.755798 976.099792,1003.883484 976.139282,1003.157288 
	C973.080566,997.087708 969.982483,991.744263 966.884399,986.400818 
	C966.884399,986.400818 966.921326,986.174866 966.764282,985.429138 
	C965.256348,982.276794 963.905457,979.870117 962.554565,977.463501 
	C962.554565,977.463501 962.470215,977.690308 962.558350,977.000488 
	C961.944702,975.084412 961.242920,973.858215 960.541138,972.631958 
	C960.541138,972.631958 960.674561,972.294861 960.528625,971.360168 
	C958.774048,962.939209 957.165405,955.453003 955.556824,947.966736 
	C955.670898,947.088562 955.784973,946.210449 955.979980,944.075562 
	C956.116272,939.858398 956.171631,936.897888 956.226929,933.937378 
	C956.581543,932.861084 956.936218,931.784790 957.547241,929.571533 
	C957.987305,926.934692 958.171021,925.434814 958.354675,923.934937 
	C958.878174,923.597107 959.145691,923.116760 959.491699,921.646118 
	C959.993774,919.841675 960.161499,918.884827 960.329163,917.928040 
	C960.884277,917.615417 961.176086,917.140869 961.550293,915.648376 
	C962.120667,913.800476 962.345398,912.808533 962.570190,911.816589 
	C962.570129,911.816589 962.612061,911.650269 963.119629,911.172913 
	C963.879944,909.759277 964.132690,908.823059 964.385498,907.886780 
	C964.385498,907.886780 964.689758,907.768433 965.194336,907.191833 
	C967.723328,903.069763 969.747864,899.524292 971.772339,895.978821 
	C971.772339,895.978821 972.292603,895.751526 972.877502,895.146729 
	C973.840759,893.755310 974.219116,892.968689 974.597412,892.182068 
	C974.597412,892.182068 974.319824,892.256714 974.940918,892.170105 
	C976.535583,890.788086 977.509216,889.492737 978.482788,888.197388 
	C979.594055,887.341614 980.705322,886.485840 982.645142,884.948975 
	C984.002930,883.598145 984.532227,882.928528 985.061523,882.258911 
	C988.543030,880.061768 992.024475,877.864563 996.579773,875.053955 
	C998.342590,873.802979 999.031616,873.165405 999.720581,872.527832 
	C999.720581,872.527832 999.609436,872.632751 1000.471558,872.561768 
	C1002.126831,871.836548 1002.919983,871.182373 1003.713135,870.528198 
	C1003.713135,870.528198 1003.643860,870.729004 1004.584839,870.680298 
	C1017.292358,865.824585 1029.574951,863.399658 1042.175415,864.909058 
	C1050.244385,865.875671 1058.115234,868.496094 1066.074829,870.375122 
	C1067.222290,871.079651 1068.369751,871.784180 1070.418213,872.987488 
	C1072.169434,873.774902 1073.019653,874.063477 1073.869873,874.352112 
	C1075.456055,875.524658 1077.042358,876.697205 1079.511475,878.519043 
	C1081.465576,879.726990 1082.536865,880.285706 1083.608032,880.844421 
	C1083.608032,880.844421 1083.571045,880.571899 1083.732910,881.190186 
	C1088.445923,886.054138 1092.996948,890.299927 1097.547974,894.545654 
	C1097.547974,894.545654 1097.585693,894.295959 1097.565186,894.883667 
	C1098.357056,896.327087 1099.169312,897.182800 1099.981689,898.038452 
	C1099.905029,898.703857 1100.094604,899.282043 1101.069824,900.674316 
	C1102.939819,903.380493 1104.290649,905.185303 1105.641479,906.990112 
	C1105.956543,907.898499 1106.271729,908.806885 1107.067993,910.575195 
	C1108.290771,912.386963 1109.032593,913.338745 1109.774414,914.290527 
	C1109.774414,914.290527 1109.813477,914.144775 1109.733643,914.681152 
	C1110.488892,916.368530 1111.323975,917.519470 1112.159180,918.670410 
	C1119.557861,932.211243 1126.956665,945.752014 1134.963257,960.397034 
	C1137.549683,964.520813 1139.528442,967.540405 1141.524048,970.471680 
	C1141.541016,970.383423 1141.362427,970.362976 1141.434692,971.088379 
	C1149.906494,986.947510 1158.189575,1002.147278 1166.727173,1017.202698 
	C1192.839111,1063.250122 1219.148315,1109.185913 1245.108765,1155.318481 
	C1248.817261,1161.908691 1252.162109,1169.104858 1253.708618,1176.435547 
	C1258.394165,1198.647095 1254.160522,1219.414185 1241.137939,1238.214600 
	C1239.065430,1241.206421 1237.075195,1244.255005 1235.182617,1247.352539 
	C1235.318237,1247.427856 1235.131958,1247.179810 1234.516113,1247.434570 
	C1225.735352,1253.778687 1218.102783,1260.847656 1209.244385,1265.660522 
	C1201.559692,1269.835449 1192.486816,1271.455322 1183.150757,1274.095703 
	C1178.156616,1274.117065 1174.039062,1274.247314 1169.494507,1274.069824 
	C1167.351440,1273.750732 1165.635498,1273.739502 1163.919556,1273.728271 
	C1162.891479,1273.344604 1161.863403,1272.961060 1159.808838,1272.304810 
	C1157.165894,1271.839355 1155.549438,1271.646606 1153.932983,1271.453857 
	C1153.099854,1271.014282 1152.266846,1270.574707 1150.258301,1269.829102 
	C1148.716431,1269.527222 1148.350220,1269.531250 1147.983887,1269.535156 
	C1147.983887,1269.535156 1147.799927,1269.236572 1147.144775,1268.782227 
	C1128.126465,1261.245239 1114.349609,1249.436157 1104.752808,1231.818237 
	C1100.484863,1223.983032 1093.318481,1216.948730 1085.924072,1211.743774 
	C1065.574097,1197.419312 1042.367798,1191.594238 1017.819702,1196.014404 
	C991.902649,1200.681152 969.513062,1211.273560 961.688293,1239.799316 
	C961.688293,1239.799316 961.866089,1239.836060 961.241699,1240.081665 
	C959.067505,1242.879272 957.517578,1245.431274 955.967651,1247.983276 
z"/>
<path fill="#55AE54" opacity="1.000000" stroke="none" 
	d="
M923.428101,1118.092529 
	C920.549438,1118.058594 917.618286,1117.540527 914.750183,1116.783691 
	C869.199158,1104.763672 825.340942,1138.275391 817.200439,1176.192993 
	C809.793762,1210.692383 822.358154,1241.076782 853.281799,1261.243774 
	C862.869080,1267.496216 873.566162,1271.092041 885.318420,1273.900146 
	C882.092102,1274.653198 877.811707,1276.314697 874.435303,1275.210938 
	C865.304810,1272.226196 855.245850,1269.754395 847.909790,1264.050659 
	C827.142822,1247.904419 811.465332,1228.116821 811.992432,1199.672974 
	C812.207764,1188.051880 811.420776,1176.500610 815.865906,1165.190674 
	C830.664734,1127.537354 876.270386,1097.418823 920.700623,1114.950806 
	C921.770447,1115.372803 922.510864,1116.629883 923.428101,1118.092529 
z"/>
<path fill="#55AE54" opacity="1.000000" stroke="none" 
	d="
M1042.161133,1124.504639 
	C1051.486572,1135.194336 1047.605103,1146.294678 1040.570801,1157.640259 
	C1040.529297,1153.801025 1041.106201,1149.634888 1042.209961,1144.271729 
	C1043.099731,1142.015503 1043.462524,1140.956421 1043.825317,1139.897461 
	C1043.233887,1135.043823 1042.642334,1130.190308 1042.161133,1124.504639 
z"/>
<path fill="#55AE54" opacity="1.000000" stroke="none" 
	d="
M1012.189575,1070.440430 
	C1018.167480,1079.980957 1024.046265,1090.307373 1029.986450,1101.363159 
	C1029.140991,1101.698853 1027.915405,1101.556885 1027.375244,1100.873291 
	C1020.357544,1091.993530 1014.517456,1082.482300 1012.189575,1070.440430 
z"/>
<path fill="#55AE54" opacity="1.000000" stroke="none" 
	d="
M1039.262939,1158.065918 
	C1034.747070,1168.100952 1025.479614,1171.836548 1014.377014,1173.525146 
	C1015.895996,1171.358643 1017.823059,1168.151978 1020.304749,1167.641479 
	C1027.418945,1166.177734 1032.719604,1161.763916 1039.262939,1158.065918 
z"/>
<path fill="#55AE54" opacity="1.000000" stroke="none" 
	d="
M1003.839355,1172.900879 
	C995.973022,1171.745239 987.666748,1169.918213 978.839844,1167.566895 
	C987.477966,1164.909790 995.767456,1166.980103 1003.839355,1172.900879 
z"/>
<path fill="#55AE54" opacity="1.000000" stroke="none" 
	d="
M982.319458,1016.335388 
	C986.868530,1023.251831 991.323914,1030.945679 995.832092,1039.361572 
	C987.640991,1034.621460 984.072876,1026.378784 982.319458,1016.335388 
z"/>
<path fill="#55AE54" opacity="1.000000" stroke="none" 
	d="
M1030.354004,1103.613281 
	C1034.392944,1109.326416 1038.343506,1115.855103 1042.330444,1123.114746 
	C1033.551147,1120.353882 1032.455811,1112.050171 1030.354004,1103.613281 
z"/>
<path fill="#55AE54" opacity="1.000000" stroke="none" 
	d="
M960.073364,1145.206909 
	C954.850464,1141.042480 949.633606,1136.153198 944.125000,1130.658569 
	C952.771545,1130.896240 957.235229,1136.777466 960.073364,1145.206909 
z"/>
<path fill="#55AE54" opacity="1.000000" stroke="none" 
	d="
M966.712891,987.232361 
	C969.982483,991.744263 973.080566,997.087708 976.212158,1003.148010 
	C968.430664,1001.410889 967.654175,994.634094 966.712891,987.232361 
z"/>
<path fill="#55AE54" opacity="1.000000" stroke="none" 
	d="
M955.182678,948.552124 
	C957.165405,955.453003 958.774048,962.939209 960.364075,971.284180 
	C958.734802,967.921936 957.124207,963.701050 955.273926,958.340637 
	C954.757263,956.742615 954.413086,956.341797 954.001587,955.998718 
	C954.270508,953.711609 954.539551,951.424561 955.182678,948.552124 
z"/>
<path fill="#55AE54" opacity="1.000000" stroke="none" 
	d="
M967.811096,1157.834351 
	C965.249695,1154.833984 962.735413,1151.080811 960.146729,1146.633423 
	C965.194580,1147.887573 967.285828,1151.953857 967.811096,1157.834351 
z"/>
<path fill="#55AE54" opacity="1.000000" stroke="none" 
	d="
M906.491821,1274.710327 
	C910.203247,1273.410034 914.323059,1272.465698 919.264343,1271.562988 
	C917.176880,1272.976929 914.267883,1274.349365 910.667969,1275.870605 
	C908.951355,1275.701782 907.925781,1275.384033 906.491821,1274.710327 
z"/>
<path fill="#49A74A" opacity="1.000000" stroke="none" 
	d="
M892.248169,1275.391357 
	C894.135925,1274.705688 896.310364,1274.521240 899.267883,1274.604980 
	C897.957275,1278.247803 895.460083,1278.648315 892.248169,1275.391357 
z"/>
<path fill="#55AE54" opacity="1.000000" stroke="none" 
	d="
M955.657349,933.956360 
	C956.171631,936.897888 956.116272,939.858398 955.803467,943.429321 
	C955.002136,941.200256 954.458252,938.360779 953.932007,934.777283 
	C954.329041,934.013916 954.708435,933.994629 955.657349,933.956360 
z"/>
<path fill="#55AE54" opacity="1.000000" stroke="none" 
	d="
M996.297974,1041.773560 
	C997.635559,1042.859131 998.911682,1044.689331 1000.210388,1047.203369 
	C998.900818,1046.097534 997.568665,1044.307861 996.297974,1041.773560 
z"/>
<path fill="#55AE54" opacity="1.000000" stroke="none" 
	d="
M962.432800,978.209473 
	C963.905457,979.870117 965.256348,982.276794 966.654419,985.397217 
	C965.238037,983.725830 963.774536,981.340637 962.432800,978.209473 
z"/>
<path fill="#55AE54" opacity="1.000000" stroke="none" 
	d="
M1004.404358,1056.163818 
	C1005.718140,1057.193359 1006.942810,1058.933228 1008.188232,1061.330322 
	C1006.911133,1060.282959 1005.613159,1058.578491 1004.404358,1056.163818 
z"/>
<path fill="#55AE54" opacity="1.000000" stroke="none" 
	d="
M931.420410,1121.872192 
	C929.263489,1121.543945 926.721985,1120.629517 923.774536,1119.174072 
	C925.924377,1119.517456 928.480164,1120.401733 931.420410,1121.872192 
z"/>
<path fill="#49A74A" opacity="1.000000" stroke="none" 
	d="
M1043.380615,1140.067627 
	C1043.462524,1140.956421 1043.099731,1142.015503 1042.373291,1143.505737 
	C1042.318481,1142.703857 1042.627319,1141.470825 1043.380615,1140.067627 
z"/>
<path fill="#55AE54" opacity="1.000000" stroke="none" 
	d="
M960.518066,973.368713 
	C961.242920,973.858215 961.944702,975.084412 962.673828,977.036621 
	C961.965759,976.543579 961.230347,975.324524 960.518066,973.368713 
z"/>
<path fill="#55AE54" opacity="1.000000" stroke="none" 
	d="
M935.398193,1124.231445 
	C934.574524,1124.330200 933.411743,1123.889404 931.932373,1122.897705 
	C932.763489,1122.795288 933.911377,1123.243530 935.398193,1124.231445 
z"/>
<path fill="#55AE54" opacity="1.000000" stroke="none" 
	d="
M976.213867,1004.372314 
	C976.911804,1004.711365 977.650879,1005.666992 978.391235,1007.254639 
	C977.679993,1006.920715 976.967468,1005.954773 976.213867,1004.372314 
z"/>
<path fill="#55AE54" opacity="1.000000" stroke="none" 
	d="
M978.297546,1008.286987 
	C979.011414,1008.624512 979.755859,1009.588257 980.509644,1011.188843 
	C979.788696,1010.854858 979.058411,1009.884094 978.297546,1008.286987 
z"/>
<path fill="#55AE54" opacity="1.000000" stroke="none" 
	d="
M1002.363403,1052.231323 
	C1003.088501,1052.552979 1003.847290,1053.504028 1004.631897,1055.091309 
	C1003.904236,1054.772095 1003.150696,1053.816406 1002.363403,1052.231323 
z"/>
<path fill="#55AE54" opacity="1.000000" stroke="none" 
	d="
M1000.205322,1048.387207 
	C1000.917297,1048.706177 1001.677734,1049.642212 1002.456787,1051.208984 
	C1001.734863,1050.894531 1000.994263,1049.949219 1000.205322,1048.387207 
z"/>
<path fill="#55AE54" opacity="1.000000" stroke="none" 
	d="
M980.384338,1012.207947 
	C981.103516,1012.558594 981.833618,1013.543762 982.561890,1015.172241 
	C981.838440,1014.824524 981.116821,1013.833496 980.384338,1012.207947 
z"/>
<path fill="#49A74A" opacity="1.000000" stroke="none" 
	d="
M954.198059,956.341064 
	C954.413086,956.341797 954.757263,956.742615 955.197632,957.558350 
	C954.997620,957.537170 954.675476,957.126465 954.198059,956.341064 
z"/>
<path fill="#55AE54" opacity="1.000000" stroke="none" 
	d="
M810.432129,1135.730469 
	C810.417969,1135.497803 810.835144,1135.015747 811.669922,1134.267822 
	C811.700195,1134.510498 811.292236,1135.003418 810.432129,1135.730469 
z"/>
<path fill="#55AE54" opacity="1.000000" stroke="none" 
	d="
M1008.644348,1063.268799 
	C1009.084412,1063.302002 1009.683350,1063.996216 1010.340515,1065.395874 
	C1009.866882,1065.377441 1009.335083,1064.653687 1008.644348,1063.268799 
z"/>
<path fill="#55AE54" opacity="1.000000" stroke="none" 
	d="
M1010.680481,1067.141602 
	C1011.132080,1067.165649 1011.719238,1067.842529 1012.351807,1069.210205 
	C1011.870178,1069.198730 1011.343140,1068.496582 1010.680481,1067.141602 
z"/>
<path fill="#55AE54" opacity="1.000000" stroke="none" 
	d="
M941.381042,1128.130493 
	C940.960938,1128.317139 940.129700,1127.981079 938.947388,1127.052246 
	C939.387573,1126.842163 940.178772,1127.224976 941.381042,1128.130493 
z"/>
<path fill="#3DBB3B" opacity="1.000000" stroke="none" 
	d="
M1169.921631,1274.377686 
	C1174.039062,1274.247314 1178.156616,1274.117065 1183.801514,1274.502075 
	C1188.905518,1275.150635 1192.781372,1276.248657 1196.006592,1275.248535 
	C1209.346191,1271.111938 1221.801147,1265.040161 1231.742920,1254.929443 
	C1233.589600,1253.051270 1234.038086,1249.798340 1235.131958,1247.179810 
	C1235.131958,1247.179810 1235.318237,1247.427856 1235.879639,1247.239258 
	C1244.378784,1242.413696 1247.940186,1234.353882 1251.951538,1226.770996 
	C1258.775146,1213.871216 1258.106323,1199.774170 1258.142822,1185.746338 
	C1258.175049,1173.354736 1254.869873,1162.392700 1248.117554,1151.873047 
	C1241.502686,1141.567383 1236.456543,1130.262573 1230.561279,1119.484253 
	C1226.900146,1112.790894 1223.039185,1106.201050 1219.090088,1099.672241 
	C1213.407593,1090.278076 1207.344482,1081.108521 1201.844727,1071.610840 
	C1195.342041,1060.381714 1189.334839,1048.866943 1182.990356,1037.544556 
	C1171.939209,1017.822388 1160.922119,998.078613 1149.561890,978.535095 
	C1147.687988,975.311584 1144.137817,973.062439 1141.362427,970.362976 
	C1141.362427,970.362976 1141.541016,970.383423 1141.553589,969.761963 
	C1140.370483,966.112305 1139.174927,963.084167 1137.979248,960.055969 
	C1132.973999,950.029419 1128.054810,939.958435 1122.913086,930.002380 
	C1121.296631,926.872620 1119.083008,924.051270 1117.248535,921.250366 
	C1120.694702,917.138672 1123.930542,918.372009 1125.400635,920.948730 
	C1130.753906,930.332031 1139.711792,937.889343 1140.211670,949.842529 
	C1140.300415,951.962830 1141.269287,954.843872 1142.839722,955.978149 
	C1154.978027,964.745728 1160.445923,978.384521 1167.919678,990.390198 
	C1184.957397,1017.759583 1201.128540,1045.667236 1217.752075,1073.295898 
	C1229.747192,1093.232422 1241.987061,1113.021851 1253.952881,1132.975708 
	C1259.774292,1142.683350 1265.931641,1152.288086 1270.660156,1162.528809 
	C1277.122314,1176.523926 1277.440918,1191.708984 1275.207031,1206.678955 
	C1269.515015,1244.819824 1246.186157,1268.547363 1211.258911,1281.627686 
	C1200.771118,1285.555420 1189.435669,1287.527710 1177.881958,1284.663330 
	C1173.740601,1283.636841 1169.213013,1284.252808 1164.991211,1283.443481 
	C1160.932861,1282.665283 1160.324707,1280.118408 1164.229004,1276.500732 
	C1166.823730,1275.466431 1168.372681,1274.921997 1169.921631,1274.377686 
z"/>
<path fill="#55AE54" opacity="1.000000" stroke="none" 
	d="
M962.364380,1239.655029 
	C969.513062,1211.273560 991.902649,1200.681152 1017.819702,1196.014404 
	C1042.367798,1191.594238 1065.574097,1197.419312 1085.924072,1211.743774 
	C1093.318481,1216.948730 1100.484863,1223.983032 1104.752808,1231.818237 
	C1114.349609,1249.436157 1128.126465,1261.245239 1146.989990,1268.864746 
	C1134.119751,1268.858398 1124.623169,1260.808105 1114.589355,1252.351440 
	C1110.406860,1247.247681 1106.519531,1242.682251 1103.208008,1237.731567 
	C1086.465088,1212.701660 1062.668091,1200.649414 1033.030762,1199.328003 
	C1010.128052,1198.306885 991.584961,1208.546631 974.762024,1222.672485 
	C972.357849,1224.691284 971.287537,1228.247559 969.416748,1230.966309 
	C967.403809,1233.891846 965.175110,1236.668823 962.364380,1239.655029 
z"/>
<path fill="#55AE54" opacity="1.000000" stroke="none" 
	d="
M1065.599243,869.823730 
	C1058.115234,868.496094 1050.244385,865.875671 1042.175415,864.909058 
	C1029.574951,863.399658 1017.292358,865.824585 1004.686157,870.712280 
	C1004.509705,870.049500 1005.027832,868.974792 1005.857544,868.611267 
	C1025.698730,859.917542 1045.493286,857.999634 1065.599243,869.823730 
z"/>
<path fill="#55AE54" opacity="1.000000" stroke="none" 
	d="
M1097.519043,893.832703 
	C1092.996948,890.299927 1088.445923,886.054138 1083.598145,881.216675 
	C1090.929199,881.498596 1094.665405,886.791687 1097.519043,893.832703 
z"/>
<path fill="#55AE54" opacity="1.000000" stroke="none" 
	d="
M971.089233,896.161743 
	C969.747864,899.524292 967.723328,903.069763 965.145386,907.036133 
	C964.437683,902.658203 965.638489,898.568359 971.089233,896.161743 
z"/>
<path fill="#55AE54" opacity="1.000000" stroke="none" 
	d="
M1137.332520,960.057312 
	C1139.174927,963.084167 1140.370483,966.112305 1141.536621,969.850220 
	C1139.528442,967.540405 1137.549683,964.520813 1135.482056,960.805969 
	C1135.823853,960.093323 1136.254761,960.075989 1137.332520,960.057312 
z"/>
<path fill="#55AE54" opacity="1.000000" stroke="none" 
	d="
M1169.494507,1274.069824 
	C1168.372681,1274.921997 1166.823730,1275.466431 1164.644775,1276.034424 
	C1163.995605,1275.669800 1163.976562,1275.281616 1163.938477,1274.310791 
	C1165.635498,1273.739502 1167.351440,1273.750732 1169.494507,1274.069824 
z"/>
<path fill="#55AE54" opacity="1.000000" stroke="none" 
	d="
M1105.607544,906.267334 
	C1104.290649,905.185303 1102.939819,903.380493 1101.482422,900.895508 
	C1102.775146,901.991760 1104.174316,903.768188 1105.607544,906.267334 
z"/>
<path fill="#55AE54" opacity="1.000000" stroke="none" 
	d="
M1154.382812,1271.907593 
	C1155.549438,1271.646606 1157.165894,1271.839355 1159.264160,1272.423706 
	C1158.108276,1272.663940 1156.470459,1272.512695 1154.382812,1271.907593 
z"/>
<path fill="#55AE54" opacity="1.000000" stroke="none" 
	d="
M977.845764,888.352112 
	C977.509216,889.492737 976.535583,890.788086 974.982666,892.307617 
	C975.338501,891.190063 976.273621,889.848511 977.845764,888.352112 
z"/>
<path fill="#55AE54" opacity="1.000000" stroke="none" 
	d="
M1112.104492,918.129150 
	C1111.323975,917.519470 1110.488892,916.368530 1109.660034,914.664307 
	C1110.460938,915.269958 1111.255371,916.428955 1112.104492,918.129150 
z"/>
<path fill="#55AE54" opacity="1.000000" stroke="none" 
	d="
M1109.686768,913.682068 
	C1109.032593,913.338745 1108.290771,912.386963 1107.503418,910.812256 
	C1108.171509,911.150818 1108.885254,912.112183 1109.686768,913.682068 
z"/>
<path fill="#55AE54" opacity="1.000000" stroke="none" 
	d="
M1083.298096,880.309021 
	C1082.536865,880.285706 1081.465576,879.726990 1080.102783,878.624573 
	C1080.870239,878.645142 1081.929199,879.209412 1083.298096,880.309021 
z"/>
<path fill="#55AE54" opacity="1.000000" stroke="none" 
	d="
M957.911499,924.554321 
	C958.171021,925.434814 957.987305,926.934692 957.323853,929.038696 
	C957.052185,928.153137 957.260315,926.663452 957.911499,924.554321 
z"/>
<path fill="#55AE54" opacity="1.000000" stroke="none" 
	d="
M1099.848389,897.452148 
	C1099.169312,897.182800 1098.357056,896.327087 1097.439697,894.870483 
	C1098.128174,895.135071 1098.921631,896.000488 1099.848389,897.452148 
z"/>
<path fill="#55AE54" opacity="1.000000" stroke="none" 
	d="
M1002.986633,870.759216 
	C1002.919983,871.182373 1002.126831,871.836548 1000.541016,872.593506 
	C1000.585632,872.127563 1001.422913,871.558838 1002.986633,870.759216 
z"/>
<path fill="#55AE54" opacity="1.000000" stroke="none" 
	d="
M959.924438,918.504883 
	C960.161499,918.884827 959.993774,919.841675 959.259033,921.288208 
	C958.967896,920.879211 959.243835,919.980530 959.924438,918.504883 
z"/>
<path fill="#55AE54" opacity="1.000000" stroke="none" 
	d="
M962.122620,912.407593 
	C962.345398,912.808533 962.120667,913.800476 961.299561,915.294312 
	C961.027161,914.863647 961.351135,913.931091 962.122620,912.407593 
z"/>
<path fill="#55AE54" opacity="1.000000" stroke="none" 
	d="
M999.058472,872.742798 
	C999.031616,873.165405 998.342590,873.802979 996.937744,874.539917 
	C996.946777,874.078857 997.671570,873.518311 999.058472,872.742798 
z"/>
<path fill="#55AE54" opacity="1.000000" stroke="none" 
	d="
M963.939636,908.434814 
	C964.132690,908.823059 963.879944,909.759277 963.036987,911.149719 
	C962.795898,910.730164 963.144836,909.856506 963.939636,908.434814 
z"/>
<path fill="#55AE54" opacity="1.000000" stroke="none" 
	d="
M1148.147949,1269.801514 
	C1148.350220,1269.531250 1148.716431,1269.527222 1149.540039,1269.827881 
	C1149.997192,1270.132690 1149.137695,1270.414429 1149.137695,1270.414429 
	C1149.137695,1270.414429 1148.311890,1270.067871 1148.147949,1269.801514 
z"/>
<path fill="#55AE54" opacity="1.000000" stroke="none" 
	d="
M1073.395264,873.899902 
	C1073.019653,874.063477 1072.169434,873.774902 1070.933350,872.910034 
	C1071.338623,872.705078 1072.129517,873.076355 1073.395264,873.899902 
z"/>
<path fill="#55AE54" opacity="1.000000" stroke="none" 
	d="
M984.500977,882.544678 
	C984.532227,882.928528 984.002930,883.598145 982.846008,884.451477 
	C982.792358,884.033630 983.366394,883.432007 984.500977,882.544678 
z"/>
<path fill="#55AE54" opacity="1.000000" stroke="none" 
	d="
M974.102295,892.591064 
	C974.219116,892.968689 973.840759,893.755310 972.873901,894.862915 
	C972.726013,894.455933 973.166626,893.728027 974.102295,892.591064 
z"/>
<path fill="#55AE54" opacity="1.000000" stroke="none" 
	d="
M956.587402,1247.896240 
	C957.517578,1245.431274 959.067505,1242.879272 961.181641,1240.013672 
	C961.815918,1241.287842 961.885864,1242.875610 961.909424,1245.260254 
	C960.311035,1246.640991 958.759094,1247.225098 956.587402,1247.896240 
z"/>
<path fill="#55AE54" opacity="1.000000" stroke="none" 
	d="
M931.455688,1267.514404 
	C936.008667,1263.809326 941.358337,1260.116821 947.375000,1256.273193 
	C945.757507,1264.047363 939.088806,1265.903320 931.455688,1267.514404 
z"/>
<path fill="#55AE54" opacity="1.000000" stroke="none" 
	d="
M921.375366,1271.505127 
	C921.936890,1270.824951 923.266052,1270.115845 925.368835,1269.403076 
	C924.809265,1270.091675 923.476196,1270.783813 921.375366,1271.505127 
z"/>
<path fill="#55AE54" opacity="1.000000" stroke="none" 
	d="
M927.080017,1269.378418 
	C927.150696,1268.978638 927.888794,1268.397583 929.350403,1267.779907 
	C929.298401,1268.227905 928.522949,1268.712524 927.080017,1269.378418 
z"/>
<path fill="#55AE54" opacity="1.000000" stroke="none" 
	d="
M1141.434692,971.088379 
	C1144.137817,973.062439 1147.687988,975.311584 1149.561890,978.535095 
	C1160.922119,998.078613 1171.939209,1017.822388 1182.990356,1037.544556 
	C1189.334839,1048.866943 1195.342041,1060.381714 1201.844727,1071.610840 
	C1207.344482,1081.108521 1213.407593,1090.278076 1219.090088,1099.672241 
	C1223.039185,1106.201050 1226.900146,1112.790894 1230.561279,1119.484253 
	C1236.456543,1130.262573 1241.502686,1141.567383 1248.117554,1151.873047 
	C1254.869873,1162.392700 1258.175049,1173.354736 1258.142822,1185.746338 
	C1258.106323,1199.774170 1258.775146,1213.871216 1251.951538,1226.770996 
	C1247.940186,1234.353882 1244.378784,1242.413696 1235.744019,1247.164062 
	C1237.075195,1244.255005 1239.065430,1241.206421 1241.137939,1238.214600 
	C1254.160522,1219.414185 1258.394165,1198.647095 1253.708618,1176.435547 
	C1252.162109,1169.104858 1248.817261,1161.908691 1245.108765,1155.318481 
	C1219.148315,1109.185913 1192.839111,1063.250122 1166.727173,1017.202698 
	C1158.189575,1002.147278 1149.906494,986.947510 1141.434692,971.088379 
z"/>
<path fill="#55AE54" opacity="1.000000" stroke="none" 
	d="
M1234.516113,1247.434570 
	C1234.038086,1249.798340 1233.589600,1253.051270 1231.742920,1254.929443 
	C1221.801147,1265.040161 1209.346191,1271.111938 1196.006592,1275.248535 
	C1192.781372,1276.248657 1188.905518,1275.150635 1184.678223,1274.610840 
	C1192.486816,1271.455322 1201.559692,1269.835449 1209.244385,1265.660522 
	C1218.102783,1260.847656 1225.735352,1253.778687 1234.516113,1247.434570 
z"/>
</svg>