<svg version="1.1" id="Layer_1" xmlns="http://www.w3.org/2000/svg" xmlns:xlink="http://www.w3.org/1999/xlink" x="0px" y="0px"
	 width="100%" viewBox="0 0 2338 1824" enable-background="new 0 0 2338 1824" xml:space="preserve">
<path fill="none" opacity="1.000000" stroke="none" 
	d="
M1460.000000,1826.000000 
	C973.391602,1826.000000 487.783142,1826.000000 2.174722,1826.000000 
	C2.116471,1825.724976 2.007173,1825.449829 2.007170,1825.174805 
	C1.999953,1217.581055 2.000000,609.987244 2.000000,2.196736 
	C781.108704,2.196736 1560.217407,2.196736 2339.663086,2.196736 
	C2339.663086,609.999878 2339.663086,1217.999878 2339.663086,1826.000000 
	C2046.928589,1826.000000 1753.964233,1826.000000 1460.000000,1826.000000 
M1585.564209,882.288757 
	C1584.769531,885.600098 1583.974731,888.911438 1583.096436,892.570618 
	C1581.787720,891.915222 1580.835693,891.650146 1580.156616,891.067322 
	C1565.775024,878.723816 1549.832275,874.188232 1531.106934,879.766418 
	C1508.060303,886.631836 1490.420166,899.049133 1482.795654,922.966309 
	C1482.187988,924.872559 1480.981934,926.588013 1479.368042,929.725586 
	C1477.887207,925.255737 1476.881470,922.482910 1476.048584,919.659119 
	C1472.930054,909.086853 1466.774902,900.696289 1458.286987,893.734192 
	C1448.192749,885.454712 1436.778931,880.622192 1423.838379,879.235962 
	C1395.321045,876.181274 1371.588013,884.988098 1355.600586,909.297546 
	C1343.130615,928.258301 1343.149780,949.578613 1348.941895,970.864929 
	C1353.602661,987.992737 1365.092773,999.932068 1380.725220,1007.418030 
	C1405.854004,1019.451660 1431.030273,1018.385132 1455.486694,1005.143250 
	C1462.727295,1001.222717 1468.852539,995.717834 1473.678589,987.943787 
	C1464.334595,981.729736 1455.563477,975.896667 1446.654907,969.972229 
	C1444.032959,971.806152 1441.918823,973.375549 1439.716797,974.810120 
	C1426.265259,983.573425 1408.048950,983.773804 1395.444702,975.111145 
	C1390.517700,971.724854 1386.124512,967.766602 1386.357422,960.628662 
	C1417.500366,960.628662 1448.224731,960.628662 1479.294678,960.628662 
	C1484.178101,985.120850 1498.912598,1001.294312 1520.732666,1010.207886 
	C1542.860596,1019.247131 1564.350098,1017.193970 1583.735107,999.372620 
	C1584.247559,1004.279480 1584.605835,1007.709961 1585.035278,1011.821655 
	C1597.348389,1013.628113 1609.422241,1013.032898 1622.703979,1011.082214 
	C1622.703979,990.815125 1622.735352,970.882324 1622.695190,950.949646 
	C1622.654297,930.665039 1622.542847,910.380615 1623.534912,891.328735 
	C1625.011963,893.901611 1626.785400,896.350525 1627.921387,899.066162 
	C1642.941284,934.976440 1657.964111,970.886414 1672.708252,1006.910217 
	C1674.560059,1011.435181 1677.068726,1013.024902 1681.659546,1012.836243 
	C1687.977539,1012.576782 1694.311279,1012.679688 1700.638184,1012.658630 
	C1710.118042,1012.627136 1710.122192,1012.640503 1713.720947,1004.015076 
	C1728.583618,968.393433 1743.444214,932.770996 1758.302979,897.147766 
	C1760.205811,892.585449 1762.094238,888.017090 1764.488403,882.249146 
	C1751.258545,880.912903 1739.116821,880.231750 1726.882568,881.312561 
	C1722.779907,881.675171 1721.617188,884.829163 1720.427979,887.992554 
	C1713.176147,907.282349 1705.925293,926.572571 1698.657593,945.856445 
	C1696.990479,950.279724 1695.258667,954.678589 1693.556641,959.088684 
	C1688.801880,951.418396 1686.068359,944.026733 1683.297241,936.649170 
	C1677.211914,920.447998 1671.039795,904.278931 1665.062256,888.038147 
	C1663.677490,884.275696 1662.004761,881.605896 1657.436035,881.637512 
	C1645.499268,881.720154 1633.560913,881.586487 1619.812866,881.257812 
	C1608.904663,881.459961 1597.996582,881.662109 1587.254395,881.801636 
	C1587.254395,881.801636 1587.126465,881.637878 1585.564209,882.288757 
M620.820435,804.363220 
	C658.223633,866.203003 695.656189,928.025085 733.021057,989.888062 
	C764.878174,1042.632202 796.596619,1095.460327 828.493042,1148.180664 
	C849.523010,1182.940063 870.686584,1217.619263 891.943848,1252.240112 
	C899.412598,1264.404297 909.448425,1273.953735 922.372681,1280.366821 
	C967.764709,1302.890015 1026.338135,1279.268799 1040.908569,1224.556396 
	C1046.374268,1204.032715 1044.083984,1184.235229 1033.483276,1165.706543 
	C1024.883667,1150.675659 1015.987183,1135.813354 1007.124695,1120.934448 
	C982.928772,1080.313232 958.827271,1039.634521 934.401917,999.151489 
	C918.578552,972.925598 902.139587,947.071716 886.209473,920.909302 
	C880.329346,911.252197 875.436584,900.993103 869.541321,891.346008 
	C849.410278,858.403564 828.814636,825.743713 808.815979,792.721863 
	C790.874329,763.096741 773.849915,732.913086 755.725830,703.402649 
	C743.671509,683.775269 728.252869,668.194702 705.122803,660.504028 
	C665.364807,647.284607 626.805115,665.632202 606.521484,697.474670 
	C601.655457,705.113647 599.685120,714.700500 596.941101,723.564331 
	C592.535645,737.794739 594.609436,751.709106 599.435364,765.561707 
	C604.219910,779.295532 612.564575,790.951782 620.820435,804.363220 
M1097.227783,818.246765 
	C1093.907349,818.444397 1090.571777,818.939819 1087.269653,818.773254 
	C1081.600220,818.487366 1078.988281,821.296082 1077.345459,826.436218 
	C1075.120483,833.398132 1072.104492,840.103271 1069.562988,846.968567 
	C1050.150757,899.404785 1030.763062,951.850037 1011.410828,1004.308411 
	C1010.554932,1006.628601 1010.116943,1009.103027 1009.365112,1011.958191 
	C1024.285522,1011.958191 1038.135620,1011.958191 1052.459717,1011.958191 
	C1057.194458,999.713928 1061.741211,987.942200 1066.298584,976.174561 
	C1069.869751,966.952881 1069.987427,966.769714 1080.049194,966.716003 
	C1096.358887,966.628845 1112.675293,966.955017 1128.976440,966.573059 
	C1135.197388,966.427307 1137.826538,969.061401 1139.570679,974.588379 
	C1142.872314,985.049988 1147.096802,995.224915 1150.266235,1005.721802 
	C1151.969849,1011.363831 1155.235840,1012.860840 1160.532349,1012.662903 
	C1167.517334,1012.401794 1174.518066,1012.598572 1181.510620,1012.498352 
	C1186.361450,1012.428833 1191.209961,1012.190613 1196.753906,1012.004395 
	C1195.812622,1008.941467 1195.336914,1007.053284 1194.659912,1005.240234 
	C1180.814087,968.152527 1166.959473,931.068237 1153.075684,893.994751 
	C1144.671875,871.554199 1136.100342,849.175537 1127.867920,826.672546 
	C1125.909058,821.318237 1123.224365,818.304199 1117.101929,818.597046 
	C1111.134155,818.882629 1105.129395,818.394470 1097.227783,818.246765 
M1279.591797,885.298889 
	C1274.352539,883.298889 1269.270630,880.382751 1263.847900,879.451965 
	C1235.316528,874.554688 1207.201660,890.472656 1196.268188,917.413574 
	C1186.639771,941.138611 1187.908691,976.796875 1211.859375,998.633667 
	C1234.043457,1018.859619 1265.021729,1020.978027 1288.435669,1002.974182 
	C1289.317017,1002.296448 1290.625732,1002.174133 1291.967651,1001.713135 
	C1292.578369,1005.451843 1293.091431,1008.592285 1293.627441,1011.873718 
	C1306.318604,1011.873718 1318.432983,1011.873718 1331.003418,1011.873718 
	C1331.003418,944.115906 1331.003418,877.412964 1331.003418,810.713989 
	C1317.776123,810.713989 1305.366455,810.713989 1292.266602,810.713989 
	C1292.266602,818.584839 1292.292603,825.538147 1292.259155,832.491211 
	C1292.227173,839.148682 1292.109985,845.805664 1292.073242,852.463135 
	C1292.034668,859.454224 1292.209351,866.450684 1291.990234,873.435364 
	C1291.781250,880.092896 1293.492676,886.937622 1290.921387,893.765320 
	C1287.167725,890.919800 1283.998169,888.517029 1279.591797,885.298889 
M347.039948,1157.631348 
	C344.065582,1162.814331 339.842468,1167.661499 338.342865,1173.240845 
	C333.123260,1192.660156 330.953766,1212.285400 336.697144,1232.218262 
	C342.963287,1253.965332 356.946777,1269.395630 375.804504,1280.564819 
	C385.786957,1286.477173 396.627838,1290.514160 408.727173,1291.174438 
	C432.865204,1292.491821 455.102448,1287.978149 474.607788,1272.965210 
	C476.975800,1271.142578 479.516754,1269.505493 482.119446,1268.033203 
	C498.581421,1258.720703 514.465454,1247.839233 534.399902,1247.408447 
	C547.008789,1247.135986 560.040588,1245.046509 572.146179,1247.462280 
	C595.083862,1252.040283 616.689697,1261.720459 635.979736,1274.832886 
	C646.128235,1281.731323 655.993652,1286.063232 667.959900,1288.280640 
	C682.495972,1290.973999 696.330811,1290.713501 710.261658,1286.252075 
	C749.633362,1273.642944 780.472229,1235.257568 771.482056,1187.013550 
	C769.701843,1177.460083 767.151367,1168.324341 761.543335,1160.139893 
	C756.101562,1152.197876 750.959656,1144.030518 746.057373,1135.742554 
	C733.026794,1113.712524 720.195923,1091.564331 707.288635,1069.461426 
	C706.785889,1068.600464 706.361572,1067.690552 705.819397,1066.856323 
	C700.212158,1058.229126 694.436279,1049.707153 689.013794,1040.965698 
	C684.110596,1033.061523 679.607910,1024.909668 674.894470,1016.887024 
	C661.430603,993.970276 647.618225,971.249939 634.596619,948.084839 
	C626.527649,933.730347 617.395935,921.020996 604.025024,910.646790 
	C578.332336,890.712402 550.404114,889.992920 521.913574,899.873474 
	C498.204163,908.095947 483.414917,927.274475 472.453217,949.302551 
	C470.390747,953.447144 468.654388,957.782532 466.284668,961.740845 
	C455.541199,979.686218 444.716125,997.584473 433.716980,1015.373962 
	C430.233734,1021.007751 425.874573,1026.097168 422.344421,1031.705444 
	C414.762360,1043.750854 407.424133,1055.950806 400.049103,1068.125610 
	C388.010071,1087.999634 375.945496,1107.858765 364.045013,1127.815674 
	C358.434021,1137.224976 353.178741,1146.846313 347.039948,1157.631348 
M1763.841919,974.981079 
	C1768.422852,985.095154 1773.890381,994.703186 1783.186646,1001.174561 
	C1801.924438,1014.218384 1822.819458,1018.811157 1844.928955,1013.207642 
	C1872.941162,1006.108093 1898.061279,981.566345 1895.770142,942.375549 
	C1893.813110,908.901306 1873.291016,884.861084 1839.568970,879.548828 
	C1818.310913,876.200134 1798.678833,879.625854 1781.762695,894.405762 
	C1760.286987,913.169373 1751.657104,942.351501 1763.841919,974.981079 
M1948.605713,961.075073 
	C1948.311401,951.676758 1949.109009,942.509949 1953.151123,933.781189 
	C1960.470215,917.975891 1973.783447,911.423889 1990.687622,915.606018 
	C1993.836548,916.385071 1996.964844,917.247681 2000.965820,918.298462 
	C2003.395874,906.432129 2005.695679,895.202148 2008.150635,883.214478 
	C2004.740723,881.798767 2001.846558,880.216553 1998.751099,879.374878 
	C1980.718750,874.471619 1965.950562,880.306274 1955.789673,896.165283 
	C1953.776611,899.307373 1951.820923,902.486206 1949.838867,905.648010 
	C1949.244507,905.400513 1948.650269,905.153015 1948.055908,904.905457 
	C1948.055908,897.451538 1948.055908,889.997620 1948.055908,882.101440 
	C1934.909668,882.101440 1922.498413,882.101440 1909.236816,882.101440 
	C1909.236816,925.790161 1909.236816,968.550903 1909.236816,1011.962341 
	C1922.375977,1012.654175 1935.115479,1013.664368 1948.600830,1011.615784 
	C1948.600830,994.937256 1948.600830,978.994690 1948.605713,961.075073 
M862.164917,671.143005 
	C851.334412,682.703796 845.610291,696.294800 847.985291,712.149475 
	C852.898071,744.946411 884.012146,763.972534 915.629089,754.002502 
	C949.958130,743.177246 961.352600,697.659729 936.493591,671.548706 
	C920.275696,654.514038 888.023376,645.920349 862.164917,671.143005 
z"/>
<path fill="#07A6F2" opacity="1.000000" stroke="none" 
	d="
M620.449585,803.741272 
	C612.564575,790.951782 604.219910,779.295532 599.435364,765.561707 
	C594.609436,751.709106 592.535645,737.794739 596.941101,723.564331 
	C599.685120,714.700500 601.655457,705.113647 606.521484,697.474670 
	C626.805115,665.632202 665.364807,647.284607 705.122803,660.504028 
	C728.252869,668.194702 743.671509,683.775269 755.725830,703.402649 
	C773.849915,732.913086 790.874329,763.096741 808.815979,792.721863 
	C828.814636,825.743713 849.410278,858.403564 869.541321,891.346008 
	C875.436584,900.993103 880.329346,911.252197 886.209473,920.909302 
	C902.139587,947.071716 918.578552,972.925598 934.401917,999.151489 
	C958.827271,1039.634521 982.928772,1080.313232 1007.124695,1120.934448 
	C1015.987183,1135.813354 1024.883667,1150.675659 1033.483276,1165.706543 
	C1044.083984,1184.235229 1046.374268,1204.032715 1040.908569,1224.556396 
	C1026.338135,1279.268799 967.764709,1302.890015 922.372681,1280.366821 
	C909.448425,1273.953735 899.412598,1264.404297 891.943848,1252.240112 
	C870.686584,1217.619263 849.523010,1182.940063 828.493042,1148.180664 
	C796.596619,1095.460327 764.878174,1042.632202 733.021057,989.888062 
	C695.656189,928.025085 658.223633,866.203003 620.449585,803.741272 
z"/>
<path fill="#0CA0E7" opacity="1.000000" stroke="none" 
	d="
M1587.088379,881.864197 
	C1597.996582,881.662109 1608.904663,881.459961 1620.775146,882.048462 
	C1621.979126,885.258118 1622.220703,887.677063 1622.462158,890.096069 
	C1622.542847,910.380615 1622.654297,930.665039 1622.695190,950.949646 
	C1622.735352,970.882324 1622.703979,990.815125 1622.703979,1011.082214 
	C1609.422241,1013.032898 1597.348389,1013.628113 1585.035278,1011.821655 
	C1584.605835,1007.709961 1584.247559,1004.279480 1583.735107,999.372620 
	C1564.350098,1017.193970 1542.860596,1019.247131 1520.732666,1010.207886 
	C1498.912598,1001.294312 1484.178101,985.120850 1479.294678,960.628662 
	C1448.224731,960.628662 1417.500366,960.628662 1386.357422,960.628662 
	C1386.124512,967.766602 1390.517700,971.724854 1395.444702,975.111145 
	C1408.048950,983.773804 1426.265259,983.573425 1439.716797,974.810120 
	C1441.918823,973.375549 1444.032959,971.806152 1446.654907,969.972229 
	C1455.563477,975.896667 1464.334595,981.729736 1473.678589,987.943787 
	C1468.852539,995.717834 1462.727295,1001.222717 1455.486694,1005.143250 
	C1431.030273,1018.385132 1405.854004,1019.451660 1380.725220,1007.418030 
	C1365.092773,999.932068 1353.602661,987.992737 1348.941895,970.864929 
	C1343.149780,949.578613 1343.130615,928.258301 1355.600586,909.297546 
	C1371.588013,884.988098 1395.321045,876.181274 1423.838379,879.235962 
	C1436.778931,880.622192 1448.192749,885.454712 1458.286987,893.734192 
	C1466.774902,900.696289 1472.930054,909.086853 1476.048584,919.659119 
	C1476.881470,922.482910 1477.887207,925.255737 1479.368042,929.725586 
	C1480.981934,926.588013 1482.187988,924.872559 1482.795654,922.966309 
	C1490.420166,899.049133 1508.060303,886.631836 1531.106934,879.766418 
	C1549.832275,874.188232 1565.775024,878.723816 1580.156616,891.067322 
	C1580.835693,891.650146 1581.787720,891.915222 1583.096436,892.570618 
	C1583.974731,888.911438 1584.769531,885.600098 1586.257690,881.973877 
	C1586.951172,881.659058 1587.088379,881.864197 1587.088379,881.864197 
M1582.679443,948.749695 
	C1582.585938,946.756897 1582.573608,944.756409 1582.385620,942.772522 
	C1581.114258,929.357361 1572.218872,919.176880 1559.150879,916.125793 
	C1545.921997,913.037109 1531.979370,919.003174 1524.756104,930.843628 
	C1517.638916,942.510559 1518.111816,956.512451 1526.643066,966.282288 
	C1535.732056,976.690735 1547.664917,980.857483 1560.911987,977.281433 
	C1573.973877,973.755432 1581.645752,964.517517 1582.679443,948.749695 
M1420.851074,935.804382 
	C1427.332031,935.576294 1434.011230,936.697815 1440.091064,933.441711 
	C1436.657837,919.429810 1423.769165,911.460938 1408.694336,913.648926 
	C1396.658691,915.395874 1387.820557,924.496277 1388.228271,935.799744 
	C1398.417969,935.799744 1408.661011,935.799744 1420.851074,935.804382 
z"/>
<path fill="#0BA0E9" opacity="1.000000" stroke="none" 
	d="
M1098.184326,818.246338 
	C1105.129395,818.394470 1111.134155,818.882629 1117.101929,818.597046 
	C1123.224365,818.304199 1125.909058,821.318237 1127.867920,826.672546 
	C1136.100342,849.175537 1144.671875,871.554199 1153.075684,893.994751 
	C1166.959473,931.068237 1180.814087,968.152527 1194.659912,1005.240234 
	C1195.336914,1007.053284 1195.812622,1008.941467 1196.753906,1012.004395 
	C1191.209961,1012.190613 1186.361450,1012.428833 1181.510620,1012.498352 
	C1174.518066,1012.598572 1167.517334,1012.401794 1160.532349,1012.662903 
	C1155.235840,1012.860840 1151.969849,1011.363831 1150.266235,1005.721802 
	C1147.096802,995.224915 1142.872314,985.049988 1139.570679,974.588379 
	C1137.826538,969.061401 1135.197388,966.427307 1128.976440,966.573059 
	C1112.675293,966.955017 1096.358887,966.628845 1080.049194,966.716003 
	C1069.987427,966.769714 1069.869751,966.952881 1066.298584,976.174561 
	C1061.741211,987.942200 1057.194458,999.713928 1052.459717,1011.958191 
	C1038.135620,1011.958191 1024.285522,1011.958191 1009.365112,1011.958191 
	C1010.116943,1009.103027 1010.554932,1006.628601 1011.410828,1004.308411 
	C1030.763062,951.850037 1050.150757,899.404785 1069.562988,846.968567 
	C1072.104492,840.103271 1075.120483,833.398132 1077.345459,826.436218 
	C1078.988281,821.296082 1081.600220,818.487366 1087.269653,818.773254 
	C1090.571777,818.939819 1093.907349,818.444397 1098.184326,818.246338 
M1119.086914,917.517151 
	C1113.788574,900.989807 1108.490112,884.462402 1102.603271,866.099365 
	C1095.865723,888.428284 1089.686646,908.906250 1083.504272,929.394958 
	C1093.811401,932.323914 1115.251831,932.179260 1122.630493,929.302795 
	C1121.630981,925.882446 1120.619995,922.423096 1119.086914,917.517151 
z"/>
<path fill="#0CA0E7" opacity="1.000000" stroke="none" 
	d="
M1280.210205,885.706543 
	C1283.998169,888.517029 1287.167725,890.919800 1290.921387,893.765320 
	C1293.492676,886.937622 1291.781250,880.092896 1291.990234,873.435364 
	C1292.209351,866.450684 1292.034668,859.454224 1292.073242,852.463135 
	C1292.109985,845.805664 1292.227173,839.148682 1292.259155,832.491211 
	C1292.292603,825.538147 1292.266602,818.584839 1292.266602,810.713989 
	C1305.366455,810.713989 1317.776123,810.713989 1331.003418,810.713989 
	C1331.003418,877.412964 1331.003418,944.115906 1331.003418,1011.873718 
	C1318.432983,1011.873718 1306.318604,1011.873718 1293.627441,1011.873718 
	C1293.091431,1008.592285 1292.578369,1005.451843 1291.967651,1001.713135 
	C1290.625732,1002.174133 1289.317017,1002.296448 1288.435669,1002.974182 
	C1265.021729,1020.978027 1234.043457,1018.859619 1211.859375,998.633667 
	C1187.908691,976.796875 1186.639771,941.138611 1196.268188,917.413574 
	C1207.201660,890.472656 1235.316528,874.554688 1263.847900,879.451965 
	C1269.270630,880.382751 1274.352539,883.298889 1280.210205,885.706543 
M1233.337646,935.343201 
	C1232.642212,938.246399 1231.602661,941.115234 1231.308594,944.058533 
	C1229.722290,959.937561 1238.776123,973.042175 1254.040405,977.255798 
	C1266.701172,980.750732 1281.385620,974.662476 1287.468750,963.396301 
	C1295.084595,949.291382 1291.864624,932.181152 1280.546753,922.500793 
	C1266.602417,910.573914 1241.143311,914.166809 1233.337646,935.343201 
z"/>
<path fill="#4AAE49" opacity="1.000000" stroke="none" 
	d="
M347.401154,1157.001465 
	C353.178741,1146.846313 358.434021,1137.224976 364.045013,1127.815674 
	C375.945496,1107.858765 388.010071,1087.999634 400.049103,1068.125610 
	C407.424133,1055.950806 414.762360,1043.750854 422.344421,1031.705444 
	C425.874573,1026.097168 430.233734,1021.007751 433.716980,1015.373962 
	C444.716125,997.584473 455.541199,979.686218 466.284668,961.740845 
	C468.654388,957.782532 470.390747,953.447144 472.453217,949.302551 
	C483.414917,927.274475 498.204163,908.095947 521.913574,899.873474 
	C550.404114,889.992920 578.332336,890.712402 604.025024,910.646790 
	C617.395935,921.020996 626.527649,933.730347 634.596619,948.084839 
	C647.618225,971.249939 661.430603,993.970276 674.894470,1016.887024 
	C679.607910,1024.909668 684.110596,1033.061523 689.013794,1040.965698 
	C694.436279,1049.707153 700.212158,1058.229126 705.819397,1066.856323 
	C706.361572,1067.690552 706.785889,1068.600464 707.288635,1069.461426 
	C720.195923,1091.564331 733.026794,1113.712524 746.057373,1135.742554 
	C750.959656,1144.030518 756.101562,1152.197876 761.543335,1160.139893 
	C767.151367,1168.324341 769.701843,1177.460083 771.482056,1187.013550 
	C780.472229,1235.257568 749.633362,1273.642944 710.261658,1286.252075 
	C696.330811,1290.713501 682.495972,1290.973999 667.959900,1288.280640 
	C655.993652,1286.063232 646.128235,1281.731323 635.979736,1274.832886 
	C616.689697,1261.720459 595.083862,1252.040283 572.146179,1247.462280 
	C560.040588,1245.046509 547.008789,1247.135986 534.399902,1247.408447 
	C514.465454,1247.839233 498.581421,1258.720703 482.119446,1268.033203 
	C479.516754,1269.505493 476.975800,1271.142578 474.607788,1272.965210 
	C455.102448,1287.978149 432.865204,1292.491821 408.727173,1291.174438 
	C396.627838,1290.514160 385.786957,1286.477173 375.804504,1280.564819 
	C356.946777,1269.395630 342.963287,1253.965332 336.697144,1232.218262 
	C330.953766,1212.285400 333.123260,1192.660156 338.342865,1173.240845 
	C339.842468,1167.661499 344.065582,1162.814331 347.401154,1157.001465 
M443.548859,1283.918457 
	C447.671356,1282.896729 452.406677,1282.958252 455.054291,1277.733765 
	C449.627502,1275.268066 445.828918,1277.581787 440.745270,1279.788452 
	C439.139923,1278.649536 437.534576,1277.510742 437.334930,1275.728638 
	C463.209534,1271.747314 482.083893,1258.534302 492.665131,1234.129761 
	C495.773499,1226.960693 500.778198,1221.312256 507.761780,1219.310059 
	C505.538696,1222.155029 503.235382,1224.941528 501.113373,1227.859985 
	C498.596283,1231.321533 495.307678,1234.585083 493.996796,1238.486450 
	C491.131317,1247.014648 485.933472,1253.573730 479.555298,1259.559692 
	C477.662628,1261.335938 474.716949,1263.004395 475.717987,1266.591797 
	C490.162079,1258.924438 504.118378,1251.515869 519.774231,1244.061035 
	C528.527771,1242.743286 537.281372,1241.425415 547.810120,1240.093506 
	C565.324036,1240.140381 581.976013,1244.479736 598.190063,1250.609985 
	C604.050232,1252.825439 609.467957,1256.190552 615.266663,1258.599854 
	C617.327209,1259.456055 619.918701,1259.034424 624.068848,1259.319946 
	C621.371277,1255.120117 619.589417,1252.815308 618.311707,1250.258545 
	C615.691345,1245.015381 611.084534,1240.487427 613.292053,1234.472412 
	C617.074036,1240.318115 620.095703,1246.872803 624.770813,1251.885498 
	C644.029236,1272.534912 674.733398,1282.767456 704.117981,1270.757202 
	C710.229614,1268.259399 715.957214,1264.822266 721.641235,1263.198853 
	C714.174805,1272.776367 703.421814,1275.831665 692.223328,1277.893555 
	C687.647888,1278.736084 683.021912,1279.577637 678.391602,1279.773193 
	C673.573547,1279.976685 668.722534,1279.399780 663.707764,1279.155518 
	C663.961182,1283.678711 666.928162,1283.562256 669.460510,1283.891724 
	C678.669739,1285.090088 687.753296,1286.619751 697.158875,1284.263062 
	C711.318176,1280.715576 726.033386,1278.764404 735.823853,1266.017212 
	C736.786255,1264.764160 738.651001,1264.246704 739.835083,1263.114136 
	C745.072571,1258.104492 751.020081,1253.582153 755.230591,1247.804810 
	C765.412903,1233.833740 768.440186,1217.756348 768.274475,1200.542236 
	C768.137939,1186.373413 764.784241,1173.686523 757.243774,1161.787476 
	C750.306091,1150.839478 743.877502,1139.569092 737.206177,1128.451904 
	C732.237915,1120.172729 727.448486,1111.771851 722.077698,1103.761475 
	C721.019043,1102.182617 716.849792,1100.877563 715.577820,1101.702271 
	C713.905945,1102.786011 712.953491,1106.135864 713.053162,1108.452759 
	C713.143005,1110.539307 715.407288,1112.435303 716.124390,1114.609375 
	C718.789612,1122.689087 725.972046,1129.048584 724.131409,1137.640381 
	C689.626038,1076.387817 655.178101,1015.102661 620.538635,953.926025 
	C616.454285,946.712646 612.010376,939.483948 606.554871,933.302124 
	C575.329285,897.919373 525.912231,905.385010 501.838959,931.760193 
	C479.200104,956.563843 476.245056,988.647095 493.422485,1019.691833 
	C515.843384,1060.213013 538.139160,1100.803345 560.440430,1141.390625 
	C568.345947,1155.778198 564.187500,1170.854492 550.244141,1178.614990 
	C550.869507,1177.449219 551.332153,1176.153076 552.145081,1175.137329 
	C561.246826,1163.763062 562.649902,1151.880615 555.043945,1139.099609 
	C551.153381,1132.561890 547.742065,1125.740479 544.051086,1119.082275 
	C525.687744,1085.957153 507.496094,1052.734375 488.822784,1019.784668 
	C482.219574,1008.133118 480.072662,995.501465 478.134308,982.675537 
	C477.628510,979.328796 477.513245,975.114746 473.518494,974.856323 
	C469.868042,974.620056 465.358704,975.474915 462.550079,977.598022 
	C459.285431,980.065796 457.297302,984.337708 455.045044,988.004700 
	C450.714874,995.054749 446.574799,1002.221924 442.383392,1009.356750 
	C439.690186,1013.941162 437.086121,1018.578308 434.371399,1023.149780 
	C429.633881,1031.127441 425.000275,1039.173096 420.041718,1047.012085 
	C407.616150,1066.656006 394.785675,1086.047607 382.582520,1105.827148 
	C370.369537,1125.622559 358.569885,1145.678711 346.928528,1165.816772 
	C343.986481,1170.906372 341.444183,1176.556885 340.250488,1182.269897 
	C335.094086,1206.948486 337.845825,1230.495850 352.684448,1253.151978 
	C360.129669,1260.456299 365.808838,1269.731567 376.954224,1274.951660 
	C383.455780,1279.186768 389.865479,1283.634399 399.351257,1284.877686 
	C406.907806,1285.883789 414.464355,1286.890015 423.572845,1287.635742 
	C429.735168,1286.432861 435.897491,1285.230103 443.548859,1283.918457 
z"/>
<path fill="#3CB83B" opacity="1.000000" stroke="none" 
	d="
M1763.547852,974.265503 
	C1751.657104,942.351501 1760.286987,913.169373 1781.762695,894.405762 
	C1798.678833,879.625854 1818.310913,876.200134 1839.568970,879.548828 
	C1873.291016,884.861084 1893.813110,908.901306 1895.770142,942.375549 
	C1898.061279,981.566345 1872.941162,1006.108093 1844.928955,1013.207642 
	C1822.819458,1018.811157 1801.924438,1014.218384 1783.186646,1001.174561 
	C1773.890381,994.703186 1768.422852,985.095154 1763.547852,974.265503 
M1828.419434,917.076965 
	C1822.694580,918.401794 1816.331177,918.562622 1811.371704,921.282959 
	C1799.403442,927.847839 1794.320190,944.295166 1799.207397,956.987427 
	C1804.434692,970.563416 1818.475586,978.404724 1832.819458,975.758911 
	C1847.391602,973.070862 1856.238403,962.165894 1856.294189,946.822571 
	C1856.352783,930.643982 1847.220947,920.379761 1828.419434,917.076965 
z"/>
<path fill="#3CB63F" opacity="1.000000" stroke="none" 
	d="
M1622.998535,890.712402 
	C1622.220703,887.677063 1621.979126,885.258118 1621.680420,882.189087 
	C1633.560913,881.586487 1645.499268,881.720154 1657.436035,881.637512 
	C1662.004761,881.605896 1663.677490,884.275696 1665.062256,888.038147 
	C1671.039795,904.278931 1677.211914,920.447998 1683.297241,936.649170 
	C1686.068359,944.026733 1688.801880,951.418396 1693.556641,959.088684 
	C1695.258667,954.678589 1696.990479,950.279724 1698.657593,945.856445 
	C1705.925293,926.572571 1713.176147,907.282349 1720.427979,887.992554 
	C1721.617188,884.829163 1722.779907,881.675171 1726.882568,881.312561 
	C1739.116821,880.231750 1751.258545,880.912903 1764.488403,882.249146 
	C1762.094238,888.017090 1760.205811,892.585449 1758.302979,897.147766 
	C1743.444214,932.770996 1728.583618,968.393433 1713.720947,1004.015076 
	C1710.122192,1012.640503 1710.118042,1012.627136 1700.638184,1012.658630 
	C1694.311279,1012.679688 1687.977539,1012.576782 1681.659546,1012.836243 
	C1677.068726,1013.024902 1674.560059,1011.435181 1672.708252,1006.910217 
	C1657.964111,970.886414 1642.941284,934.976440 1627.921387,899.066162 
	C1626.785400,896.350525 1625.011963,893.901611 1622.998535,890.712402 
z"/>
<path fill="#0CA0E7" opacity="1.000000" stroke="none" 
	d="
M1948.603271,962.063599 
	C1948.600830,978.994690 1948.600830,994.937256 1948.600830,1011.615784 
	C1935.115479,1013.664368 1922.375977,1012.654175 1909.236816,1011.962341 
	C1909.236816,968.550903 1909.236816,925.790161 1909.236816,882.101440 
	C1922.498413,882.101440 1934.909668,882.101440 1948.055908,882.101440 
	C1948.055908,889.997620 1948.055908,897.451538 1948.055908,904.905457 
	C1948.650269,905.153015 1949.244507,905.400513 1949.838867,905.648010 
	C1951.820923,902.486206 1953.776611,899.307373 1955.789673,896.165283 
	C1965.950562,880.306274 1980.718750,874.471619 1998.751099,879.374878 
	C2001.846558,880.216553 2004.740723,881.798767 2008.150635,883.214478 
	C2005.695679,895.202148 2003.395874,906.432129 2000.965820,918.298462 
	C1996.964844,917.247681 1993.836548,916.385071 1990.687622,915.606018 
	C1973.783447,911.423889 1960.470215,917.975891 1953.151123,933.781189 
	C1949.109009,942.509949 1948.311401,951.676758 1948.603271,962.063599 
z"/>
<path fill="#4AAE49" opacity="1.000000" stroke="none" 
	d="
M862.630859,670.611572 
	C888.023376,645.920349 920.275696,654.514038 936.493591,671.548706 
	C961.352600,697.659729 949.958130,743.177246 915.629089,754.002502 
	C884.012146,763.972534 852.898071,744.946411 847.985291,712.149475 
	C845.610291,696.294800 851.334412,682.703796 862.630859,670.611572 
M876.339417,747.137085 
	C880.766479,748.543762 885.104553,750.453674 889.638611,751.255249 
	C899.974670,753.082397 910.952454,753.284851 919.859375,748.006775 
	C932.532837,740.496704 942.510681,730.624329 944.852600,714.021973 
	C948.349121,689.234314 933.906128,666.055237 909.469910,660.891296 
	C878.072021,654.256042 856.414185,675.254883 852.566833,698.754700 
	C849.181274,719.433777 858.536560,734.767090 876.339417,747.137085 
z"/>
<path fill="#3CB63F" opacity="1.000000" stroke="none" 
	d="
M1587.171387,881.832886 
	C1587.088379,881.864197 1586.951172,881.659058 1587.038818,881.648438 
	C1587.126465,881.637878 1587.254395,881.801636 1587.171387,881.832886 
z"/>
<path fill="#FFFFFF" opacity="1.000000" stroke="none" 
	d="
M1582.649658,949.632202 
	C1581.645752,964.517517 1573.973877,973.755432 1560.911987,977.281433 
	C1547.664917,980.857483 1535.732056,976.690735 1526.643066,966.282288 
	C1518.111816,956.512451 1517.638916,942.510559 1524.756104,930.843628 
	C1531.979370,919.003174 1545.921997,913.037109 1559.150879,916.125793 
	C1572.218872,919.176880 1581.114258,929.357361 1582.385620,942.772522 
	C1582.573608,944.756409 1582.585938,946.756897 1582.649658,949.632202 
z"/>
<path fill="#FFFFFF" opacity="1.000000" stroke="none" 
	d="
M1419.877563,935.802063 
	C1408.661011,935.799744 1398.417969,935.799744 1388.228271,935.799744 
	C1387.820557,924.496277 1396.658691,915.395874 1408.694336,913.648926 
	C1423.769165,911.460938 1436.657837,919.429810 1440.091064,933.441711 
	C1434.011230,936.697815 1427.332031,935.576294 1419.877563,935.802063 
z"/>
<path fill="#FFFFFF" opacity="1.000000" stroke="none" 
	d="
M1119.348022,918.240479 
	C1120.619995,922.423096 1121.630981,925.882446 1122.630493,929.302795 
	C1115.251831,932.179260 1093.811401,932.323914 1083.504272,929.394958 
	C1089.686646,908.906250 1095.865723,888.428284 1102.603271,866.099365 
	C1108.490112,884.462402 1113.788574,900.989807 1119.348022,918.240479 
z"/>
<path fill="#FFFFFF" opacity="1.000000" stroke="none" 
	d="
M1233.616943,934.586792 
	C1241.143311,914.166809 1266.602417,910.573914 1280.546753,922.500793 
	C1291.864624,932.181152 1295.084595,949.291382 1287.468750,963.396301 
	C1281.385620,974.662476 1266.701172,980.750732 1254.040405,977.255798 
	C1238.776123,973.042175 1229.722290,959.937561 1231.308594,944.058533 
	C1231.602661,941.115234 1232.642212,938.246399 1233.616943,934.586792 
z"/>
<path fill="#FCFEFC" opacity="1.000000" stroke="none" 
	d="
M508.043640,1217.955444 
	C500.778198,1221.312256 495.773499,1226.960693 492.665131,1234.129761 
	C482.083893,1258.534302 463.209534,1271.747314 435.817810,1275.870483 
	C431.530396,1276.164673 428.760101,1276.317139 425.236877,1276.193604 
	C423.493805,1275.794922 422.504486,1275.665039 421.513397,1275.550659 
	C386.647583,1271.520630 360.295166,1245.370483 356.783264,1211.315674 
	C353.446564,1178.959717 375.408356,1146.451538 407.589600,1136.326904 
	C441.298889,1125.721680 477.341522,1142.511353 491.108337,1170.338379 
	C492.998444,1174.158813 497.030396,1177.563477 500.888947,1179.641357 
	C511.039642,1185.108032 522.225708,1187.482666 533.680969,1185.927490 
	C539.031006,1185.201294 544.084656,1182.291382 549.519165,1180.417114 
	C549.765808,1180.463013 549.943604,1179.994019 549.943604,1179.994019 
	C564.187500,1170.854492 568.345947,1155.778198 560.440430,1141.390625 
	C538.139160,1100.803345 515.843384,1060.213013 493.422485,1019.691833 
	C476.245056,988.647095 479.200104,956.563843 501.838959,931.760193 
	C525.912231,905.385010 575.329285,897.919373 606.554871,933.302124 
	C612.010376,939.483948 616.454285,946.712646 620.538635,953.926025 
	C655.178101,1015.102661 689.626038,1076.387817 724.679199,1137.967285 
	C725.226929,1138.294312 725.223755,1138.421997 725.329712,1139.142578 
	C730.517456,1148.850342 735.594971,1157.839844 740.682129,1166.823975 
	C747.039368,1178.051270 750.536255,1190.016357 750.772217,1203.007935 
	C750.982666,1214.594849 747.488831,1225.296753 743.636047,1236.096069 
	C743.406860,1236.168823 743.511841,1236.638062 742.937012,1237.057495 
	C735.506714,1245.609985 728.651184,1253.743164 721.845520,1261.900146 
	C721.895325,1261.923950 721.861755,1261.817993 721.861755,1261.817993 
	C715.957214,1264.822266 710.229614,1268.259399 704.117981,1270.757202 
	C674.733398,1282.767456 644.029236,1272.534912 624.770813,1251.885498 
	C620.095703,1246.872803 617.074036,1240.318115 612.660278,1234.215454 
	C612.028503,1233.958496 612.132568,1233.944946 611.981934,1233.283447 
	C597.411682,1215.381348 578.536804,1206.865112 556.509705,1205.482300 
	C539.434204,1204.410645 522.874268,1206.674805 508.422577,1217.528076 
	C508.183136,1217.491455 508.043640,1217.955444 508.043640,1217.955444 
z"/>
<path fill="#3AC237" opacity="1.000000" stroke="none" 
	d="
M550.093872,1179.304443 
	C549.943604,1179.994019 549.765808,1180.463013 548.590332,1180.373535 
	C539.149292,1180.851685 530.851501,1182.167236 522.625977,1181.811279 
	C510.362610,1181.280396 499.514923,1178.339111 493.150116,1165.401733 
	C485.812378,1150.486572 472.243744,1140.337280 457.397949,1134.999512 
	C431.571747,1125.713745 405.692413,1126.691162 382.805939,1144.861084 
	C368.576080,1156.158081 357.136200,1170.124634 354.726257,1188.155518 
	C352.092743,1207.859131 352.056427,1228.130737 363.681793,1246.520020 
	C360.636261,1251.308594 356.528290,1252.172974 351.981140,1252.026123 
	C337.845825,1230.495850 335.094086,1206.948486 340.250488,1182.269897 
	C341.444183,1176.556885 343.986481,1170.906372 346.928528,1165.816772 
	C358.569885,1145.678711 370.369537,1125.622559 382.582520,1105.827148 
	C394.785675,1086.047607 407.616150,1066.656006 420.041718,1047.012085 
	C425.000275,1039.173096 429.633881,1031.127441 434.371399,1023.149780 
	C437.086121,1018.578308 439.690186,1013.941162 442.383392,1009.356750 
	C446.574799,1002.221924 450.714874,995.054749 455.045044,988.004700 
	C457.297302,984.337708 459.285431,980.065796 462.550079,977.598022 
	C465.358704,975.474915 469.868042,974.620056 473.518494,974.856323 
	C477.513245,975.114746 477.628510,979.328796 478.134308,982.675537 
	C480.072662,995.501465 482.219574,1008.133118 488.822784,1019.784668 
	C507.496094,1052.734375 525.687744,1085.957153 544.051086,1119.082275 
	C547.742065,1125.740479 551.153381,1132.561890 555.043945,1139.099609 
	C562.649902,1151.880615 561.246826,1163.763062 552.145081,1175.137329 
	C551.332153,1176.153076 550.869507,1177.449219 550.093872,1179.304443 
z"/>
<path fill="#3AC237" opacity="1.000000" stroke="none" 
	d="
M507.902710,1218.632812 
	C508.043640,1217.955444 508.183136,1217.491455 509.260254,1217.523193 
	C517.549622,1215.190063 524.667480,1212.469971 531.990967,1210.523682 
	C558.259644,1203.542725 580.703613,1212.190430 601.109619,1228.210449 
	C604.498291,1230.870728 607.239441,1234.350464 612.132568,1233.944946 
	C612.132568,1233.944946 612.028503,1233.958496 612.052490,1233.910889 
	C611.084534,1240.487427 615.691345,1245.015381 618.311707,1250.258545 
	C619.589417,1252.815308 621.371277,1255.120117 624.068848,1259.319946 
	C619.918701,1259.034424 617.327209,1259.456055 615.266663,1258.599854 
	C609.467957,1256.190552 604.050232,1252.825439 598.190063,1250.609985 
	C581.976013,1244.479736 565.324036,1240.140381 546.293213,1239.665039 
	C540.589294,1238.242310 536.448486,1236.788574 532.204529,1236.362793 
	C525.965759,1235.736816 520.045898,1236.551758 518.074707,1244.107422 
	C504.118378,1251.515869 490.162079,1258.924438 475.717987,1266.591797 
	C474.716949,1263.004395 477.662628,1261.335938 479.555298,1259.559692 
	C485.933472,1253.573730 491.131317,1247.014648 493.996796,1238.486450 
	C495.307678,1234.585083 498.596283,1231.321533 501.113373,1227.859985 
	C503.235382,1224.941528 505.538696,1222.155029 507.902710,1218.632812 
z"/>
<path fill="#3AC237" opacity="1.000000" stroke="none" 
	d="
M743.511841,1236.638062 
	C743.511841,1236.638062 743.406860,1236.168823 744.351196,1235.920166 
	C746.860046,1233.704224 749.140869,1231.959839 749.837219,1229.722290 
	C751.203979,1225.331177 751.612122,1220.649780 752.550903,1216.116211 
	C758.710022,1186.374390 745.296814,1162.771362 728.695862,1140.201416 
	C728.006348,1139.264160 726.401978,1138.999756 725.223755,1138.421997 
	C725.223755,1138.421997 725.226929,1138.294312 725.212402,1138.357910 
	C725.972046,1129.048584 718.789612,1122.689087 716.124390,1114.609375 
	C715.407288,1112.435303 713.143005,1110.539307 713.053162,1108.452759 
	C712.953491,1106.135864 713.905945,1102.786011 715.577820,1101.702271 
	C716.849792,1100.877563 721.019043,1102.182617 722.077698,1103.761475 
	C727.448486,1111.771851 732.237915,1120.172729 737.206177,1128.451904 
	C743.877502,1139.569092 750.306091,1150.839478 757.243774,1161.787476 
	C764.784241,1173.686523 768.137939,1186.373413 768.274475,1200.542236 
	C768.440186,1217.756348 765.412903,1233.833740 755.230591,1247.804810 
	C751.020081,1253.582153 745.072571,1258.104492 739.835083,1263.114136 
	C738.651001,1264.246704 736.786255,1264.764160 735.823853,1266.017212 
	C726.033386,1278.764404 711.318176,1280.715576 697.158875,1284.263062 
	C687.753296,1286.619751 678.669739,1285.090088 669.460510,1283.891724 
	C666.928162,1283.562256 663.961182,1283.678711 663.707764,1279.155518 
	C668.722534,1279.399780 673.573547,1279.976685 678.391602,1279.773193 
	C683.021912,1279.577637 687.647888,1278.736084 692.223328,1277.893555 
	C703.421814,1275.831665 714.174805,1272.776367 721.751465,1262.508423 
	C721.861755,1261.817993 721.895325,1261.923950 722.580811,1261.909424 
	C734.988831,1257.463135 741.088257,1248.523804 743.511841,1236.638062 
z"/>
<path fill="#3CB83B" opacity="1.000000" stroke="none" 
	d="
M352.332794,1252.589111 
	C356.528290,1252.172974 360.636261,1251.308594 364.237885,1246.891602 
	C371.447968,1253.096191 377.716583,1259.520630 383.633606,1266.477295 
	C380.842590,1269.343750 378.403198,1271.677856 375.963806,1274.011841 
	C365.808838,1269.731567 360.129669,1260.456299 352.332794,1252.589111 
z"/>
<path fill="#3AC237" opacity="1.000000" stroke="none" 
	d="
M376.459015,1274.481689 
	C378.403198,1271.677856 380.842590,1269.343750 384.232697,1266.785889 
	C390.134827,1269.704834 395.086212,1272.847778 399.901550,1276.669800 
	C399.182312,1279.583984 398.599121,1281.819092 398.015930,1284.054077 
	C389.865479,1283.634399 383.455780,1279.186768 376.459015,1274.481689 
z"/>
<path fill="#3CB83B" opacity="1.000000" stroke="none" 
	d="
M398.683594,1284.465820 
	C398.599121,1281.819092 399.182312,1279.583984 400.734375,1276.681152 
	C408.480347,1276.772095 415.257477,1277.530884 422.026917,1279.092285 
	C422.019775,1282.561890 422.020325,1285.229126 422.020874,1287.896240 
	C414.464355,1286.890015 406.907806,1285.883789 398.683594,1284.465820 
z"/>
<path fill="#3AC237" opacity="1.000000" stroke="none" 
	d="
M422.796875,1287.765991 
	C422.020325,1285.229126 422.019775,1282.561890 422.560974,1278.951416 
	C424.065033,1277.495117 425.027405,1276.982300 425.989746,1276.469482 
	C428.760101,1276.317139 431.530396,1276.164673 435.114990,1276.192139 
	C437.534576,1277.510742 439.139923,1278.649536 441.382507,1280.524292 
	C442.033112,1282.182495 442.046448,1283.104858 442.059814,1284.027222 
	C435.897491,1285.230103 429.735168,1286.432861 422.796875,1287.765991 
z"/>
<path fill="#3CB83B" opacity="1.000000" stroke="none" 
	d="
M518.924438,1244.084229 
	C520.045898,1236.551758 525.965759,1235.736816 532.204529,1236.362793 
	C536.448486,1236.788574 540.589294,1238.242310 545.405640,1239.671997 
	C537.281372,1241.425415 528.527771,1242.743286 518.924438,1244.084229 
z"/>
<path fill="#3CB83B" opacity="1.000000" stroke="none" 
	d="
M442.804321,1283.972900 
	C442.046448,1283.104858 442.033112,1282.182495 442.023163,1280.566284 
	C445.828918,1277.581787 449.627502,1275.268066 455.054291,1277.733765 
	C452.406677,1282.958252 447.671356,1282.896729 442.804321,1283.972900 
z"/>
<path fill="#FFFFFF" opacity="1.000000" stroke="none" 
	d="
M1829.200684,917.162231 
	C1847.220947,920.379761 1856.352783,930.643982 1856.294189,946.822571 
	C1856.238403,962.165894 1847.391602,973.070862 1832.819458,975.758911 
	C1818.475586,978.404724 1804.434692,970.563416 1799.207397,956.987427 
	C1794.320190,944.295166 1799.403442,927.847839 1811.371704,921.282959 
	C1816.331177,918.562622 1822.694580,918.401794 1829.200684,917.162231 
z"/>
<path fill="#3AC237" opacity="1.000000" stroke="none" 
	d="
M875.669556,746.788452 
	C858.536560,734.767090 849.181274,719.433777 852.566833,698.754700 
	C856.414185,675.254883 878.072021,654.256042 909.469910,660.891296 
	C933.906128,666.055237 948.349121,689.234314 944.852600,714.021973 
	C942.510681,730.624329 932.532837,740.496704 919.859375,748.006775 
	C910.952454,753.284851 899.974670,753.082397 889.638611,751.255249 
	C885.104553,750.453674 880.766479,748.543762 875.669556,746.788452 
z"/>
<path fill="#4AAE49" opacity="1.000000" stroke="none" 
	d="
M425.236847,1276.193604 
	C425.027405,1276.982300 424.065033,1277.495117 422.568665,1278.148926 
	C415.257477,1277.530884 408.480347,1276.772095 400.870422,1276.001953 
	C395.086212,1272.847778 390.134827,1269.704834 384.584320,1266.253418 
	C377.716583,1259.520630 371.447968,1253.096191 364.623230,1246.300293 
	C352.056427,1228.130737 352.092743,1207.859131 354.726257,1188.155518 
	C357.136200,1170.124634 368.576080,1156.158081 382.805939,1144.861084 
	C405.692413,1126.691162 431.571747,1125.713745 457.397949,1134.999512 
	C472.243744,1140.337280 485.812378,1150.486572 493.150116,1165.401733 
	C499.514923,1178.339111 510.362610,1181.280396 522.625977,1181.811279 
	C530.851501,1182.167236 539.149292,1180.851685 548.343689,1180.327637 
	C544.084656,1182.291382 539.031006,1185.201294 533.680969,1185.927490 
	C522.225708,1187.482666 511.039642,1185.108032 500.888947,1179.641357 
	C497.030396,1177.563477 492.998444,1174.158813 491.108337,1170.338379 
	C477.341522,1142.511353 441.298889,1125.721680 407.589600,1136.326904 
	C375.408356,1146.451538 353.446564,1178.959717 356.783264,1211.315674 
	C360.295166,1245.370483 386.647583,1271.520630 421.513397,1275.550659 
	C422.504486,1275.665039 423.493805,1275.794922 425.236847,1276.193604 
z"/>
<path fill="#4AAE49" opacity="1.000000" stroke="none" 
	d="
M611.981934,1233.283447 
	C607.239441,1234.350464 604.498291,1230.870728 601.109619,1228.210449 
	C580.703613,1212.190430 558.259644,1203.542725 531.990967,1210.523682 
	C524.667480,1212.469971 517.549622,1215.190063 509.499695,1217.559814 
	C522.874268,1206.674805 539.434204,1204.410645 556.509705,1205.482300 
	C578.536804,1206.865112 597.411682,1215.381348 611.981934,1233.283447 
z"/>
<path fill="#4AAE49" opacity="1.000000" stroke="none" 
	d="
M725.329712,1139.142578 
	C726.401978,1138.999756 728.006348,1139.264160 728.695862,1140.201416 
	C745.296814,1162.771362 758.710022,1186.374390 752.550903,1216.116211 
	C751.612122,1220.649780 751.203979,1225.331177 749.837219,1229.722290 
	C749.140869,1231.959839 746.860046,1233.704224 744.580322,1235.847412 
	C747.488831,1225.296753 750.982666,1214.594849 750.772217,1203.007935 
	C750.536255,1190.016357 747.039368,1178.051270 740.682129,1166.823975 
	C735.594971,1157.839844 730.517456,1148.850342 725.329712,1139.142578 
z"/>
<path fill="#4AAE49" opacity="1.000000" stroke="none" 
	d="
M742.937012,1237.057495 
	C741.088257,1248.523804 734.988831,1257.463135 722.531006,1261.885742 
	C728.651184,1253.743164 735.506714,1245.609985 742.937012,1237.057495 
z"/>
</svg>